<svg width="365" height="260" viewBox="365 0 365 260" fill="none" xmlns="http://www.w3.org/2000/svg">
<rect x="432" y="102" width="67.2" height="38.4" rx="8" fill="#94A3B8" stroke="#FF79C6" stroke-width="3" stroke-linecap="round" stroke-dasharray="8 8"/>
<rect x="604.8" y="102" width="67.2" height="38.4" rx="8" fill="#94A3B8" stroke="#FF79C6" stroke-width="3" stroke-linecap="round" stroke-dasharray="8 8"/>
<rect x="514" y="174" width="67.2" height="38.4" rx="8" fill="#FF79C6"/>
<path d="M466.1 144.399C466.1 144.123 465.876 143.899 465.6 143.899C465.324 143.899 465.1 144.123 465.1 144.399H466.1ZM510.354 193.553C510.549 193.358 510.549 193.041 510.354 192.846L507.172 189.664C506.976 189.469 506.66 189.469 506.465 189.664C506.269 189.859 506.269 190.176 506.465 190.371L509.293 193.199L506.465 196.028C506.269 196.223 506.269 196.54 506.465 196.735C506.66 196.93 506.976 196.93 507.172 196.735L510.354 193.553ZM465.1 144.399V169.199H466.1V144.399H465.1ZM489.6 193.699H510V192.699H489.6V193.699ZM465.1 169.199C465.1 182.73 476.069 193.699 489.6 193.699V192.699C476.621 192.699 466.1 182.178 466.1 169.199H465.1Z" fill="#94A3B8"/>
<path d="M638.9 144.399C638.9 144.123 638.676 143.899 638.4 143.899C638.124 143.899 637.9 144.123 637.9 144.399H638.9ZM584.846 192.846C584.651 193.041 584.651 193.358 584.846 193.553L588.028 196.735C588.224 196.93 588.54 196.93 588.736 196.735C588.931 196.54 588.931 196.223 588.736 196.028L585.907 193.199L588.736 190.371C588.931 190.176 588.931 189.859 588.736 189.664C588.54 189.469 588.224 189.469 588.028 189.664L584.846 192.846ZM637.9 144.399V169.199H638.9V144.399H637.9ZM614.4 192.699H585.2V193.699H614.4V192.699ZM637.9 169.199C637.9 182.178 627.379 192.699 614.4 192.699V193.699C627.931 193.699 638.9 182.73 638.9 169.199H637.9Z" fill="#94A3B8"/>
<path d="M622.821 125H621.423L624.564 116.273H626.085L629.226 125H627.828L625.361 117.858H625.293L622.821 125ZM623.055 121.582H627.589V122.69H623.055V121.582ZM630.384 127.455V118.455H631.628V119.516H631.735C631.809 119.379 631.915 119.222 632.054 119.043C632.194 118.864 632.387 118.707 632.634 118.574C632.881 118.438 633.208 118.369 633.614 118.369C634.142 118.369 634.614 118.503 635.029 118.77C635.444 119.037 635.769 119.422 636.005 119.925C636.243 120.428 636.363 121.033 636.363 121.74C636.363 122.447 636.245 123.054 636.009 123.56C635.773 124.062 635.449 124.45 635.037 124.723C634.625 124.993 634.155 125.128 633.627 125.128C633.229 125.128 632.904 125.061 632.651 124.928C632.401 124.794 632.205 124.638 632.063 124.459C631.921 124.28 631.811 124.121 631.735 123.982H631.658V127.455H630.384ZM631.632 121.727C631.632 122.187 631.699 122.591 631.833 122.938C631.966 123.284 632.159 123.555 632.412 123.751C632.665 123.945 632.975 124.041 633.341 124.041C633.722 124.041 634.04 123.94 634.296 123.739C634.551 123.534 634.745 123.257 634.875 122.908C635.009 122.558 635.076 122.165 635.076 121.727C635.076 121.295 635.01 120.908 634.88 120.564C634.752 120.22 634.559 119.949 634.3 119.75C634.044 119.551 633.725 119.452 633.341 119.452C632.972 119.452 632.659 119.547 632.404 119.737C632.151 119.928 631.959 120.193 631.828 120.534C631.698 120.875 631.632 121.273 631.632 121.727ZM637.79 127.455V118.455H639.034V119.516H639.141C639.215 119.379 639.321 119.222 639.461 119.043C639.6 118.864 639.793 118.707 640.04 118.574C640.287 118.438 640.614 118.369 641.02 118.369C641.549 118.369 642.02 118.503 642.435 118.77C642.85 119.037 643.175 119.422 643.411 119.925C643.65 120.428 643.769 121.033 643.769 121.74C643.769 122.447 643.651 123.054 643.415 123.56C643.179 124.062 642.855 124.45 642.444 124.723C642.032 124.993 641.561 125.128 641.033 125.128C640.635 125.128 640.31 125.061 640.057 124.928C639.807 124.794 639.611 124.638 639.469 124.459C639.327 124.28 639.218 124.121 639.141 123.982H639.064V127.455H637.79ZM639.039 121.727C639.039 122.187 639.105 122.591 639.239 122.938C639.373 123.284 639.566 123.555 639.819 123.751C640.071 123.945 640.381 124.041 640.748 124.041C641.128 124.041 641.446 123.94 641.702 123.739C641.958 123.534 642.151 123.257 642.282 122.908C642.415 122.558 642.482 122.165 642.482 121.727C642.482 121.295 642.417 120.908 642.286 120.564C642.158 120.22 641.965 119.949 641.706 119.75C641.451 119.551 641.131 119.452 640.748 119.452C640.378 119.452 640.066 119.547 639.81 119.737C639.557 119.928 639.365 120.193 639.235 120.534C639.104 120.875 639.039 121.273 639.039 121.727ZM648.355 125V124.045L651.308 120.986C651.624 120.653 651.884 120.362 652.088 120.112C652.295 119.859 652.45 119.619 652.553 119.392C652.655 119.165 652.706 118.923 652.706 118.668C652.706 118.378 652.638 118.128 652.501 117.918C652.365 117.705 652.179 117.541 651.943 117.428C651.707 117.311 651.442 117.253 651.146 117.253C650.834 117.253 650.561 117.317 650.328 117.445C650.095 117.572 649.916 117.753 649.791 117.986C649.666 118.219 649.604 118.491 649.604 118.804H648.347C648.347 118.273 648.469 117.808 648.713 117.411C648.957 117.013 649.293 116.705 649.719 116.486C650.145 116.264 650.629 116.153 651.172 116.153C651.72 116.153 652.203 116.263 652.621 116.482C653.041 116.697 653.369 116.993 653.605 117.368C653.841 117.74 653.959 118.161 653.959 118.629C653.959 118.953 653.898 119.27 653.776 119.58C653.656 119.889 653.447 120.234 653.149 120.615C652.851 120.993 652.436 121.452 651.905 121.991L650.17 123.807V123.871H654.099V125H648.355Z" fill="white"/>
<path d="M540.322 197V188.273H541.639V195.866H545.593V197H540.322ZM546.993 197V190.455H548.267V197H546.993ZM547.637 189.445C547.415 189.445 547.225 189.371 547.066 189.223C546.909 189.072 546.831 188.893 546.831 188.686C546.831 188.476 546.909 188.297 547.066 188.149C547.225 187.999 547.415 187.923 547.637 187.923C547.858 187.923 548.047 187.999 548.203 188.149C548.363 188.297 548.442 188.476 548.442 188.686C548.442 188.893 548.363 189.072 548.203 189.223C548.047 189.371 547.858 189.445 547.637 189.445ZM550.084 197V188.273H551.358V191.516H551.435C551.509 191.379 551.615 191.222 551.754 191.043C551.893 190.864 552.087 190.707 552.334 190.574C552.581 190.438 552.908 190.369 553.314 190.369C553.842 190.369 554.314 190.503 554.729 190.77C555.143 191.037 555.469 191.422 555.705 191.925C555.943 192.428 556.062 193.033 556.062 193.74C556.062 194.447 555.945 195.054 555.709 195.56C555.473 196.062 555.149 196.45 554.737 196.723C554.325 196.993 553.855 197.128 553.327 197.128C552.929 197.128 552.604 197.061 552.351 196.928C552.101 196.794 551.905 196.638 551.763 196.459C551.621 196.28 551.511 196.121 551.435 195.982H551.328V197H550.084ZM551.332 193.727C551.332 194.187 551.399 194.591 551.533 194.938C551.666 195.284 551.859 195.555 552.112 195.751C552.365 195.945 552.675 196.041 553.041 196.041C553.422 196.041 553.74 195.94 553.996 195.739C554.251 195.534 554.445 195.257 554.575 194.908C554.709 194.558 554.776 194.165 554.776 193.727C554.776 193.295 554.71 192.908 554.58 192.564C554.452 192.22 554.259 191.949 554 191.75C553.744 191.551 553.425 191.452 553.041 191.452C552.672 191.452 552.359 191.547 552.104 191.737C551.851 191.928 551.659 192.193 551.528 192.534C551.398 192.875 551.332 193.273 551.332 193.727Z" fill="white"/>
<path d="M452.165 125H450.767L453.908 116.273H455.429L458.57 125H457.172L454.705 117.858H454.636L452.165 125ZM452.399 121.582H456.933V122.69H452.399V121.582ZM459.728 127.455V118.455H460.972V119.516H461.078C461.152 119.379 461.259 119.222 461.398 119.043C461.537 118.864 461.73 118.707 461.978 118.574C462.225 118.438 462.551 118.369 462.958 118.369C463.486 118.369 463.958 118.503 464.373 118.77C464.787 119.037 465.113 119.422 465.348 119.925C465.587 120.428 465.706 121.033 465.706 121.74C465.706 122.447 465.588 123.054 465.353 123.56C465.117 124.062 464.793 124.45 464.381 124.723C463.969 124.993 463.499 125.128 462.971 125.128C462.573 125.128 462.248 125.061 461.995 124.928C461.745 124.794 461.549 124.638 461.407 124.459C461.265 124.28 461.155 124.121 461.078 123.982H461.002V127.455H459.728ZM460.976 121.727C460.976 122.187 461.043 122.591 461.176 122.938C461.31 123.284 461.503 123.555 461.756 123.751C462.009 123.945 462.319 124.041 462.685 124.041C463.066 124.041 463.384 123.94 463.64 123.739C463.895 123.534 464.088 123.257 464.219 122.908C464.353 122.558 464.419 122.165 464.419 121.727C464.419 121.295 464.354 120.908 464.223 120.564C464.096 120.22 463.902 119.949 463.644 119.75C463.388 119.551 463.069 119.452 462.685 119.452C462.316 119.452 462.003 119.547 461.748 119.737C461.495 119.928 461.303 120.193 461.172 120.534C461.042 120.875 460.976 121.273 460.976 121.727ZM467.134 127.455V118.455H468.378V119.516H468.485C468.559 119.379 468.665 119.222 468.804 119.043C468.944 118.864 469.137 118.707 469.384 118.574C469.631 118.438 469.958 118.369 470.364 118.369C470.892 118.369 471.364 118.503 471.779 118.77C472.194 119.037 472.519 119.422 472.755 119.925C472.993 120.428 473.113 121.033 473.113 121.74C473.113 122.447 472.995 123.054 472.759 123.56C472.523 124.062 472.199 124.45 471.787 124.723C471.375 124.993 470.905 125.128 470.377 125.128C469.979 125.128 469.654 125.061 469.401 124.928C469.151 124.794 468.955 124.638 468.813 124.459C468.671 124.28 468.561 124.121 468.485 123.982H468.408V127.455H467.134ZM468.382 121.727C468.382 122.187 468.449 122.591 468.583 122.938C468.716 123.284 468.909 123.555 469.162 123.751C469.415 123.945 469.725 124.041 470.091 124.041C470.472 124.041 470.79 123.94 471.046 123.739C471.301 123.534 471.495 123.257 471.625 122.908C471.759 122.558 471.826 122.165 471.826 121.727C471.826 121.295 471.76 120.908 471.63 120.564C471.502 120.22 471.309 119.949 471.05 119.75C470.794 119.551 470.475 119.452 470.091 119.452C469.722 119.452 469.409 119.547 469.154 119.737C468.901 119.928 468.709 120.193 468.578 120.534C468.448 120.875 468.382 121.273 468.382 121.727ZM481.01 116.273V125H479.689V117.594H479.638L477.55 118.957V117.696L479.727 116.273H481.01Z" fill="white"/>
<path d="M466.428 54.1477H464.655C464.587 53.7689 464.46 53.4356 464.274 53.1477C464.089 52.8598 463.861 52.6155 463.592 52.4148C463.323 52.214 463.022 52.0625 462.689 51.9602C462.359 51.858 462.009 51.8068 461.638 51.8068C460.967 51.8068 460.367 51.9754 459.837 52.3125C459.31 52.6496 458.893 53.1439 458.587 53.7955C458.284 54.447 458.132 55.2424 458.132 56.1818C458.132 57.1288 458.284 57.928 458.587 58.5795C458.893 59.2311 459.312 59.7235 459.842 60.0568C460.373 60.3902 460.969 60.5568 461.632 60.5568C462 60.5568 462.348 60.5076 462.678 60.4091C463.011 60.3068 463.312 60.1572 463.581 59.9602C463.85 59.7633 464.077 59.5227 464.263 59.2386C464.452 58.9508 464.583 58.6212 464.655 58.25L466.428 58.2557C466.333 58.8277 466.149 59.3542 465.876 59.8352C465.607 60.3125 465.261 60.7254 464.837 61.0739C464.416 61.4186 463.935 61.6856 463.393 61.875C462.852 62.0644 462.261 62.1591 461.621 62.1591C460.613 62.1591 459.715 61.9205 458.928 61.4432C458.14 60.9621 457.518 60.2746 457.064 59.3807C456.613 58.4867 456.388 57.4205 456.388 56.1818C456.388 54.9394 456.615 53.8731 457.07 52.983C457.524 52.089 458.145 51.4034 458.933 50.9261C459.721 50.4451 460.617 50.2045 461.621 50.2045C462.238 50.2045 462.814 50.2936 463.348 50.4716C463.886 50.6458 464.369 50.9034 464.797 51.2443C465.225 51.5814 465.579 51.9943 465.859 52.483C466.14 52.9678 466.329 53.5227 466.428 54.1477ZM470.091 56.8182V62H468.392V50.3636H470.068V54.6932H470.176C470.381 54.2235 470.693 53.8504 471.114 53.5739C471.534 53.2973 472.083 53.1591 472.761 53.1591C473.36 53.1591 473.883 53.2822 474.33 53.5284C474.78 53.7746 475.129 54.142 475.375 54.6307C475.625 55.1155 475.75 55.7216 475.75 56.4489V62H474.051V56.6534C474.051 56.0133 473.886 55.517 473.557 55.1648C473.227 54.8087 472.769 54.6307 472.182 54.6307C471.78 54.6307 471.42 54.7159 471.102 54.8864C470.788 55.0568 470.54 55.3068 470.358 55.6364C470.18 55.9621 470.091 56.3561 470.091 56.8182ZM480.557 62.1932C480.004 62.1932 479.504 62.0909 479.057 61.8864C478.61 61.678 478.256 61.3769 477.994 60.983C477.737 60.589 477.608 60.1061 477.608 59.5341C477.608 59.0417 477.703 58.6364 477.892 58.3182C478.081 58 478.337 57.7481 478.659 57.5625C478.981 57.3769 479.341 57.2367 479.739 57.142C480.136 57.0473 480.542 56.9754 480.955 56.9261C481.477 56.8655 481.902 56.8163 482.227 56.7784C482.553 56.7367 482.79 56.6705 482.938 56.5795C483.085 56.4886 483.159 56.3409 483.159 56.1364V56.0966C483.159 55.6004 483.019 55.2159 482.739 54.9432C482.462 54.6705 482.049 54.5341 481.5 54.5341C480.928 54.5341 480.477 54.661 480.148 54.9148C479.822 55.1648 479.597 55.4432 479.472 55.75L477.875 55.3864C478.064 54.8561 478.341 54.428 478.705 54.1023C479.072 53.7727 479.494 53.5341 479.972 53.3864C480.449 53.2348 480.951 53.1591 481.477 53.1591C481.826 53.1591 482.195 53.2008 482.585 53.2841C482.979 53.3636 483.347 53.5114 483.688 53.7273C484.032 53.9432 484.314 54.2519 484.534 54.6534C484.754 55.0511 484.864 55.5682 484.864 56.2045V62H483.205V60.8068H483.136C483.027 61.0265 482.862 61.2424 482.642 61.4545C482.422 61.6667 482.14 61.8428 481.795 61.983C481.451 62.1231 481.038 62.1932 480.557 62.1932ZM480.926 60.8295C481.396 60.8295 481.797 60.7367 482.131 60.5511C482.468 60.3655 482.723 60.1231 482.898 59.8239C483.076 59.5208 483.165 59.197 483.165 58.8523V57.7273C483.104 57.7879 482.987 57.8447 482.812 57.8977C482.642 57.947 482.447 57.9905 482.227 58.0284C482.008 58.0625 481.794 58.0947 481.585 58.125C481.377 58.1515 481.203 58.1742 481.062 58.1932C480.733 58.2348 480.432 58.3049 480.159 58.4034C479.89 58.5019 479.674 58.6439 479.511 58.8295C479.352 59.0114 479.273 59.2538 479.273 59.5568C479.273 59.9773 479.428 60.2955 479.739 60.5114C480.049 60.7235 480.445 60.8295 480.926 60.8295ZM488.825 56.8182V62H487.126V53.2727H488.757V54.6932H488.865C489.066 54.2311 489.38 53.8598 489.808 53.5795C490.24 53.2992 490.784 53.1591 491.439 53.1591C492.034 53.1591 492.554 53.2841 493.001 53.5341C493.448 53.7803 493.795 54.1477 494.041 54.6364C494.287 55.125 494.411 55.7292 494.411 56.4489V62H492.712V56.6534C492.712 56.0208 492.547 55.5265 492.217 55.1705C491.888 54.8106 491.435 54.6307 490.859 54.6307C490.465 54.6307 490.115 54.7159 489.808 54.8864C489.505 55.0568 489.265 55.3068 489.087 55.6364C488.912 55.9621 488.825 56.3561 488.825 56.8182ZM500.348 65.4545C499.655 65.4545 499.058 65.3636 498.558 65.1818C498.062 65 497.657 64.7595 497.342 64.4602C497.028 64.161 496.793 63.8333 496.638 63.4773L498.098 62.875C498.2 63.0417 498.337 63.2178 498.507 63.4034C498.681 63.5928 498.916 63.7538 499.212 63.8864C499.511 64.0189 499.895 64.0852 500.365 64.0852C501.009 64.0852 501.541 63.928 501.962 63.6136C502.382 63.303 502.592 62.8068 502.592 62.125V60.4091H502.484C502.382 60.5947 502.234 60.8011 502.041 61.0284C501.852 61.2557 501.59 61.4527 501.257 61.6193C500.924 61.786 500.49 61.8693 499.956 61.8693C499.267 61.8693 498.645 61.7083 498.092 61.3864C497.543 61.0606 497.107 60.5814 496.786 59.9489C496.467 59.3125 496.308 58.5303 496.308 57.6023C496.308 56.6742 496.465 55.8788 496.78 55.2159C497.098 54.553 497.534 54.0455 498.087 53.6932C498.64 53.3371 499.267 53.1591 499.967 53.1591C500.509 53.1591 500.946 53.25 501.28 53.4318C501.613 53.6098 501.873 53.8182 502.058 54.0568C502.248 54.2955 502.393 54.5057 502.496 54.6875H502.621V53.2727H504.286V62.1932C504.286 62.9432 504.111 63.5587 503.763 64.0398C503.414 64.5208 502.943 64.8769 502.348 65.108C501.757 65.339 501.09 65.4545 500.348 65.4545ZM500.331 60.4602C500.82 60.4602 501.232 60.3466 501.57 60.1193C501.911 59.8883 502.168 59.5587 502.342 59.1307C502.52 58.6989 502.609 58.1818 502.609 57.5795C502.609 56.9924 502.522 56.4754 502.348 56.0284C502.174 55.5814 501.918 55.233 501.581 54.983C501.244 54.7292 500.827 54.6023 500.331 54.6023C499.82 54.6023 499.393 54.7348 499.053 55C498.712 55.2614 498.454 55.6174 498.28 56.0682C498.109 56.5189 498.024 57.0227 498.024 57.5795C498.024 58.1515 498.111 58.6534 498.286 59.0852C498.46 59.517 498.717 59.8542 499.058 60.0966C499.403 60.339 499.827 60.4602 500.331 60.4602ZM506.564 62V53.2727H508.263V62H506.564ZM507.422 51.9261C507.126 51.9261 506.873 51.8277 506.661 51.6307C506.452 51.4299 506.348 51.1913 506.348 50.9148C506.348 50.6345 506.452 50.3958 506.661 50.1989C506.873 49.9981 507.126 49.8977 507.422 49.8977C507.717 49.8977 507.969 49.9981 508.178 50.1989C508.39 50.3958 508.496 50.6345 508.496 50.9148C508.496 51.1913 508.39 51.4299 508.178 51.6307C507.969 51.8277 507.717 51.9261 507.422 51.9261ZM512.247 56.8182V62H510.548V53.2727H512.179V54.6932H512.287C512.488 54.2311 512.802 53.8598 513.23 53.5795C513.662 53.2992 514.205 53.1591 514.861 53.1591C515.455 53.1591 515.976 53.2841 516.423 53.5341C516.87 53.7803 517.217 54.1477 517.463 54.6364C517.709 55.125 517.832 55.7292 517.832 56.4489V62H516.134V56.6534C516.134 56.0208 515.969 55.5265 515.639 55.1705C515.31 54.8106 514.857 54.6307 514.281 54.6307C513.887 54.6307 513.537 54.7159 513.23 54.8864C512.927 55.0568 512.687 55.3068 512.509 55.6364C512.334 55.9621 512.247 56.3561 512.247 56.8182ZM523.77 65.4545C523.077 65.4545 522.48 65.3636 521.98 65.1818C521.484 65 521.079 64.7595 520.764 64.4602C520.45 64.161 520.215 63.8333 520.06 63.4773L521.52 62.875C521.622 63.0417 521.759 63.2178 521.929 63.4034C522.103 63.5928 522.338 63.7538 522.634 63.8864C522.933 64.0189 523.317 64.0852 523.787 64.0852C524.431 64.0852 524.963 63.928 525.384 63.6136C525.804 63.303 526.014 62.8068 526.014 62.125V60.4091H525.906C525.804 60.5947 525.656 60.8011 525.463 61.0284C525.274 61.2557 525.012 61.4527 524.679 61.6193C524.346 61.786 523.912 61.8693 523.378 61.8693C522.688 61.8693 522.067 61.7083 521.514 61.3864C520.965 61.0606 520.529 60.5814 520.207 59.9489C519.889 59.3125 519.73 58.5303 519.73 57.6023C519.73 56.6742 519.887 55.8788 520.202 55.2159C520.52 54.553 520.955 54.0455 521.509 53.6932C522.062 53.3371 522.688 53.1591 523.389 53.1591C523.931 53.1591 524.368 53.25 524.702 53.4318C525.035 53.6098 525.295 53.8182 525.48 54.0568C525.67 54.2955 525.815 54.5057 525.918 54.6875H526.043V53.2727H527.707V62.1932C527.707 62.9432 527.533 63.5587 527.185 64.0398C526.836 64.5208 526.365 64.8769 525.77 65.108C525.179 65.339 524.512 65.4545 523.77 65.4545ZM523.753 60.4602C524.241 60.4602 524.654 60.3466 524.991 60.1193C525.332 59.8883 525.59 59.5587 525.764 59.1307C525.942 58.6989 526.031 58.1818 526.031 57.5795C526.031 56.9924 525.944 56.4754 525.77 56.0284C525.596 55.5814 525.34 55.233 525.003 54.983C524.666 54.7292 524.249 54.6023 523.753 54.6023C523.241 54.6023 522.815 54.7348 522.474 55C522.134 55.2614 521.876 55.6174 521.702 56.0682C521.531 56.5189 521.446 57.0227 521.446 57.5795C521.446 58.1515 521.533 58.6534 521.707 59.0852C521.882 59.517 522.139 59.8542 522.48 60.0966C522.825 60.339 523.249 60.4602 523.753 60.4602ZM535.919 50.3636V62H534.22V50.3636H535.919ZM538.205 62V53.2727H539.903V62H538.205ZM539.062 51.9261C538.767 51.9261 538.513 51.8277 538.301 51.6307C538.093 51.4299 537.989 51.1913 537.989 50.9148C537.989 50.6345 538.093 50.3958 538.301 50.1989C538.513 49.9981 538.767 49.8977 539.062 49.8977C539.358 49.8977 539.61 49.9981 539.818 50.1989C540.03 50.3958 540.136 50.6345 540.136 50.9148C540.136 51.1913 540.03 51.4299 539.818 51.6307C539.61 51.8277 539.358 51.9261 539.062 51.9261ZM542.325 62V50.3636H544.024V54.6875H544.126C544.225 54.5057 544.367 54.2955 544.553 54.0568C544.738 53.8182 544.996 53.6098 545.325 53.4318C545.655 53.25 546.09 53.1591 546.632 53.1591C547.337 53.1591 547.965 53.3371 548.518 53.6932C549.071 54.0492 549.505 54.5625 549.82 55.233C550.138 55.9034 550.297 56.7102 550.297 57.6534C550.297 58.5966 550.14 59.4053 549.825 60.0795C549.511 60.75 549.079 61.267 548.53 61.6307C547.981 61.9905 547.354 62.1705 546.649 62.1705C546.119 62.1705 545.685 62.0814 545.348 61.9034C545.015 61.7254 544.753 61.517 544.564 61.2784C544.375 61.0398 544.229 60.8277 544.126 60.642H543.984V62H542.325ZM543.99 57.6364C543.99 58.25 544.079 58.7879 544.257 59.25C544.435 59.7121 544.693 60.0739 545.03 60.3352C545.367 60.5928 545.78 60.7216 546.268 60.7216C546.776 60.7216 547.2 60.5871 547.541 60.3182C547.882 60.0455 548.14 59.6761 548.314 59.2102C548.492 58.7443 548.581 58.2197 548.581 57.6364C548.581 57.0606 548.494 56.5436 548.32 56.0852C548.149 55.6269 547.892 55.2652 547.547 55C547.206 54.7348 546.78 54.6023 546.268 54.6023C545.776 54.6023 545.359 54.7292 545.018 54.983C544.681 55.2367 544.426 55.5909 544.251 56.0455C544.077 56.5 543.99 57.0303 543.99 57.6364ZM560.115 62.1761C559.27 62.1761 558.543 61.9848 557.933 61.6023C557.327 61.2159 556.861 60.6837 556.536 60.0057C556.21 59.3277 556.047 58.5511 556.047 57.6761C556.047 56.7898 556.214 56.0076 556.547 55.3295C556.88 54.6477 557.35 54.1155 557.956 53.733C558.562 53.3504 559.276 53.1591 560.098 53.1591C560.761 53.1591 561.352 53.2822 561.871 53.5284C562.39 53.7708 562.808 54.1117 563.126 54.5511C563.448 54.9905 563.64 55.5038 563.7 56.0909H562.047C561.956 55.6818 561.748 55.3295 561.422 55.0341C561.1 54.7386 560.668 54.5909 560.126 54.5909C559.653 54.5909 559.238 54.7159 558.882 54.9659C558.53 55.2121 558.255 55.5644 558.058 56.0227C557.861 56.4773 557.763 57.0152 557.763 57.6364C557.763 58.2727 557.859 58.822 558.053 59.2841C558.246 59.7462 558.518 60.1042 558.871 60.358C559.227 60.6117 559.645 60.7386 560.126 60.7386C560.448 60.7386 560.74 60.6799 561.001 60.5625C561.267 60.4413 561.488 60.2689 561.666 60.0455C561.848 59.822 561.975 59.553 562.047 59.2386H563.7C563.64 59.803 563.456 60.3068 563.149 60.75C562.842 61.1932 562.431 61.5417 561.916 61.7955C561.405 62.0492 560.804 62.1761 560.115 62.1761ZM568.057 62.1932C567.504 62.1932 567.004 62.0909 566.557 61.8864C566.11 61.678 565.756 61.3769 565.494 60.983C565.237 60.589 565.108 60.1061 565.108 59.5341C565.108 59.0417 565.203 58.6364 565.392 58.3182C565.581 58 565.837 57.7481 566.159 57.5625C566.481 57.3769 566.841 57.2367 567.239 57.142C567.636 57.0473 568.042 56.9754 568.455 56.9261C568.977 56.8655 569.402 56.8163 569.727 56.7784C570.053 56.7367 570.29 56.6705 570.438 56.5795C570.585 56.4886 570.659 56.3409 570.659 56.1364V56.0966C570.659 55.6004 570.519 55.2159 570.239 54.9432C569.962 54.6705 569.549 54.5341 569 54.5341C568.428 54.5341 567.977 54.661 567.648 54.9148C567.322 55.1648 567.097 55.4432 566.972 55.75L565.375 55.3864C565.564 54.8561 565.841 54.428 566.205 54.1023C566.572 53.7727 566.994 53.5341 567.472 53.3864C567.949 53.2348 568.451 53.1591 568.977 53.1591C569.326 53.1591 569.695 53.2008 570.085 53.2841C570.479 53.3636 570.847 53.5114 571.188 53.7273C571.532 53.9432 571.814 54.2519 572.034 54.6534C572.254 55.0511 572.364 55.5682 572.364 56.2045V62H570.705V60.8068H570.636C570.527 61.0265 570.362 61.2424 570.142 61.4545C569.922 61.6667 569.64 61.8428 569.295 61.983C568.951 62.1231 568.538 62.1932 568.057 62.1932ZM568.426 60.8295C568.896 60.8295 569.297 60.7367 569.631 60.5511C569.968 60.3655 570.223 60.1231 570.398 59.8239C570.576 59.5208 570.665 59.197 570.665 58.8523V57.7273C570.604 57.7879 570.487 57.8447 570.312 57.8977C570.142 57.947 569.947 57.9905 569.727 58.0284C569.508 58.0625 569.294 58.0947 569.085 58.125C568.877 58.1515 568.703 58.1742 568.562 58.1932C568.233 58.2348 567.932 58.3049 567.659 58.4034C567.39 58.5019 567.174 58.6439 567.011 58.8295C566.852 59.0114 566.773 59.2538 566.773 59.5568C566.773 59.9773 566.928 60.2955 567.239 60.5114C567.549 60.7235 567.945 60.8295 568.426 60.8295ZM576.325 56.8182V62H574.626V53.2727H576.257V54.6932H576.365C576.566 54.2311 576.88 53.8598 577.308 53.5795C577.74 53.2992 578.284 53.1591 578.939 53.1591C579.534 53.1591 580.054 53.2841 580.501 53.5341C580.948 53.7803 581.295 54.1477 581.541 54.6364C581.787 55.125 581.911 55.7292 581.911 56.4489V62H580.212V56.6534C580.212 56.0208 580.047 55.5265 579.717 55.1705C579.388 54.8106 578.935 54.6307 578.359 54.6307C577.965 54.6307 577.615 54.7159 577.308 54.8864C577.005 55.0568 576.765 55.3068 576.587 55.6364C576.412 55.9621 576.325 56.3561 576.325 56.8182ZM590.963 62.1932C590.41 62.1932 589.91 62.0909 589.463 61.8864C589.016 61.678 588.662 61.3769 588.401 60.983C588.143 60.589 588.014 60.1061 588.014 59.5341C588.014 59.0417 588.109 58.6364 588.298 58.3182C588.488 58 588.743 57.7481 589.065 57.5625C589.387 57.3769 589.747 57.2367 590.145 57.142C590.543 57.0473 590.948 56.9754 591.361 56.9261C591.884 56.8655 592.308 56.8163 592.634 56.7784C592.959 56.7367 593.196 56.6705 593.344 56.5795C593.491 56.4886 593.565 56.3409 593.565 56.1364V56.0966C593.565 55.6004 593.425 55.2159 593.145 54.9432C592.868 54.6705 592.455 54.5341 591.906 54.5341C591.334 54.5341 590.884 54.661 590.554 54.9148C590.228 55.1648 590.003 55.4432 589.878 55.75L588.281 55.3864C588.471 54.8561 588.747 54.428 589.111 54.1023C589.478 53.7727 589.901 53.5341 590.378 53.3864C590.855 53.2348 591.357 53.1591 591.884 53.1591C592.232 53.1591 592.601 53.2008 592.991 53.2841C593.385 53.3636 593.753 53.5114 594.094 53.7273C594.438 53.9432 594.721 54.2519 594.94 54.6534C595.16 55.0511 595.27 55.5682 595.27 56.2045V62H593.611V60.8068H593.543C593.433 61.0265 593.268 61.2424 593.048 61.4545C592.829 61.6667 592.546 61.8428 592.202 61.983C591.857 62.1231 591.444 62.1932 590.963 62.1932ZM591.332 60.8295C591.802 60.8295 592.204 60.7367 592.537 60.5511C592.874 60.3655 593.13 60.1231 593.304 59.8239C593.482 59.5208 593.571 59.197 593.571 58.8523V57.7273C593.51 57.7879 593.393 57.8447 593.219 57.8977C593.048 57.947 592.853 57.9905 592.634 58.0284C592.414 58.0625 592.2 58.0947 591.991 58.125C591.783 58.1515 591.609 58.1742 591.469 58.1932C591.139 58.2348 590.838 58.3049 590.565 58.4034C590.296 58.5019 590.08 58.6439 589.918 58.8295C589.759 59.0114 589.679 59.2538 589.679 59.5568C589.679 59.9773 589.834 60.2955 590.145 60.5114C590.455 60.7235 590.851 60.8295 591.332 60.8295ZM601.686 53.2727V54.6364H596.754V53.2727H601.686ZM598.107 62V52.2614C598.107 51.7159 598.226 51.2633 598.464 50.9034C598.703 50.5398 599.019 50.2689 599.413 50.0909C599.807 49.9091 600.235 49.8182 600.697 49.8182C601.038 49.8182 601.33 49.8466 601.572 49.9034C601.815 49.9564 601.995 50.0057 602.112 50.0511L601.714 51.4261C601.635 51.4034 601.533 51.3769 601.408 51.3466C601.283 51.3125 601.131 51.2955 600.953 51.2955C600.54 51.2955 600.245 51.3977 600.067 51.6023C599.893 51.8068 599.805 52.1023 599.805 52.4886V62H598.107ZM607.592 53.2727V54.6364H602.661V53.2727H607.592ZM604.013 62V52.2614C604.013 51.7159 604.132 51.2633 604.371 50.9034C604.609 50.5398 604.926 50.2689 605.32 50.0909C605.714 49.9091 606.142 49.8182 606.604 49.8182C606.945 49.8182 607.236 49.8466 607.479 49.9034C607.721 49.9564 607.901 50.0057 608.018 50.0511L607.621 51.4261C607.541 51.4034 607.439 51.3769 607.314 51.3466C607.189 51.3125 607.037 51.2955 606.859 51.2955C606.446 51.2955 606.151 51.3977 605.973 51.6023C605.799 51.8068 605.712 52.1023 605.712 52.4886V62H604.013ZM612.763 62.1761C611.903 62.1761 611.162 61.9924 610.541 61.625C609.924 61.2538 609.446 60.733 609.109 60.0625C608.776 59.3883 608.609 58.5985 608.609 57.6932C608.609 56.7992 608.776 56.0114 609.109 55.3295C609.446 54.6477 609.916 54.1155 610.518 53.733C611.125 53.3504 611.833 53.1591 612.643 53.1591C613.136 53.1591 613.613 53.2405 614.075 53.4034C614.537 53.5663 614.952 53.822 615.32 54.1705C615.687 54.5189 615.977 54.9716 616.189 55.5284C616.401 56.0814 616.507 56.7538 616.507 57.5455V58.1477H609.57V56.875H614.842C614.842 56.428 614.751 56.0322 614.57 55.6875C614.388 55.339 614.132 55.0644 613.803 54.8636C613.477 54.6629 613.094 54.5625 612.655 54.5625C612.178 54.5625 611.761 54.6799 611.405 54.9148C611.053 55.1458 610.78 55.4489 610.587 55.8239C610.397 56.1951 610.303 56.5985 610.303 57.0341V58.0284C610.303 58.6117 610.405 59.108 610.609 59.517C610.818 59.9261 611.107 60.2386 611.479 60.4545C611.85 60.6667 612.284 60.7727 612.78 60.7727C613.102 60.7727 613.395 60.7273 613.661 60.6364C613.926 60.5417 614.155 60.4015 614.348 60.2159C614.541 60.0303 614.689 59.8011 614.791 59.5284L616.399 59.8182C616.27 60.2917 616.039 60.7064 615.706 61.0625C615.376 61.4148 614.962 61.6894 614.462 61.8864C613.965 62.0795 613.399 62.1761 612.763 62.1761ZM622.068 62.1761C621.223 62.1761 620.496 61.9848 619.886 61.6023C619.28 61.2159 618.814 60.6837 618.489 60.0057C618.163 59.3277 618 58.5511 618 57.6761C618 56.7898 618.167 56.0076 618.5 55.3295C618.833 54.6477 619.303 54.1155 619.909 53.733C620.515 53.3504 621.229 53.1591 622.051 53.1591C622.714 53.1591 623.305 53.2822 623.824 53.5284C624.343 53.7708 624.761 54.1117 625.08 54.5511C625.402 54.9905 625.593 55.5038 625.653 56.0909H624C623.909 55.6818 623.701 55.3295 623.375 55.0341C623.053 54.7386 622.621 54.5909 622.08 54.5909C621.606 54.5909 621.191 54.7159 620.835 54.9659C620.483 55.2121 620.208 55.5644 620.011 56.0227C619.814 56.4773 619.716 57.0152 619.716 57.6364C619.716 58.2727 619.813 58.822 620.006 59.2841C620.199 59.7462 620.472 60.1042 620.824 60.358C621.18 60.6117 621.598 60.7386 622.08 60.7386C622.402 60.7386 622.693 60.6799 622.955 60.5625C623.22 60.4413 623.441 60.2689 623.619 60.0455C623.801 59.822 623.928 59.553 624 59.2386H625.653C625.593 59.803 625.409 60.3068 625.102 60.75C624.795 61.1932 624.384 61.5417 623.869 61.7955C623.358 62.0492 622.758 62.1761 622.068 62.1761ZM631.544 53.2727V54.6364H626.777V53.2727H631.544ZM628.055 51.1818H629.754V59.4375C629.754 59.767 629.804 60.0152 629.902 60.1818C630 60.3447 630.127 60.4564 630.283 60.517C630.442 60.5739 630.614 60.6023 630.8 60.6023C630.936 60.6023 631.055 60.5928 631.158 60.5739C631.26 60.5549 631.339 60.5398 631.396 60.5284L631.703 61.9318C631.605 61.9697 631.464 62.0076 631.283 62.0455C631.101 62.0871 630.874 62.1098 630.601 62.1136C630.154 62.1212 629.737 62.0417 629.351 61.875C628.964 61.7083 628.652 61.4508 628.413 61.1023C628.175 60.7538 628.055 60.3163 628.055 59.7898V51.1818ZM493.982 69.3636V81H492.283V69.3636H493.982ZM496.267 81V72.2727H497.966V81H496.267ZM497.125 70.9261C496.83 70.9261 496.576 70.8277 496.364 70.6307C496.155 70.4299 496.051 70.1913 496.051 69.9148C496.051 69.6345 496.155 69.3958 496.364 69.1989C496.576 68.9981 496.83 68.8977 497.125 68.8977C497.42 68.8977 497.672 68.9981 497.881 69.1989C498.093 69.3958 498.199 69.6345 498.199 69.9148C498.199 70.1913 498.093 70.4299 497.881 70.6307C497.672 70.8277 497.42 70.9261 497.125 70.9261ZM500.388 81V69.3636H502.087V73.6875H502.189C502.287 73.5057 502.429 73.2955 502.615 73.0568C502.801 72.8182 503.058 72.6098 503.388 72.4318C503.717 72.25 504.153 72.1591 504.695 72.1591C505.399 72.1591 506.028 72.3371 506.581 72.6932C507.134 73.0492 507.568 73.5625 507.882 74.233C508.2 74.9034 508.359 75.7102 508.359 76.6534C508.359 77.5966 508.202 78.4053 507.888 79.0795C507.573 79.75 507.142 80.267 506.592 80.6307C506.043 80.9905 505.416 81.1705 504.712 81.1705C504.181 81.1705 503.748 81.0814 503.411 80.9034C503.077 80.7254 502.816 80.517 502.626 80.2784C502.437 80.0398 502.291 79.8277 502.189 79.642H502.047V81H500.388ZM502.053 76.6364C502.053 77.25 502.142 77.7879 502.32 78.25C502.498 78.7121 502.755 79.0739 503.092 79.3352C503.429 79.5928 503.842 79.7216 504.331 79.7216C504.839 79.7216 505.263 79.5871 505.604 79.3182C505.945 79.0455 506.202 78.6761 506.376 78.2102C506.554 77.7443 506.643 77.2197 506.643 76.6364C506.643 76.0606 506.556 75.5436 506.382 75.0852C506.212 74.6269 505.954 74.2652 505.609 74C505.268 73.7348 504.842 73.6023 504.331 73.6023C503.839 73.6023 503.422 73.7292 503.081 73.983C502.744 74.2367 502.488 74.5909 502.314 75.0455C502.14 75.5 502.053 76.0303 502.053 76.6364ZM512.477 79.4091L512.392 80.0284C512.335 80.483 512.239 80.9564 512.102 81.4489C511.97 81.9451 511.831 82.4053 511.688 82.8295C511.547 83.2538 511.432 83.5909 511.341 83.8409H510.136C510.186 83.6061 510.254 83.2879 510.341 82.8864C510.428 82.4886 510.513 82.0436 510.597 81.5511C510.68 81.0587 510.742 80.5568 510.784 80.0455L510.841 79.4091H512.477ZM521.463 81.1932C520.91 81.1932 520.41 81.0909 519.963 80.8864C519.516 80.678 519.162 80.3769 518.901 79.983C518.643 79.589 518.514 79.1061 518.514 78.5341C518.514 78.0417 518.609 77.6364 518.798 77.3182C518.988 77 519.243 76.7481 519.565 76.5625C519.887 76.3769 520.247 76.2367 520.645 76.142C521.043 76.0473 521.448 75.9754 521.861 75.9261C522.384 75.8655 522.808 75.8163 523.134 75.7784C523.459 75.7367 523.696 75.6705 523.844 75.5795C523.991 75.4886 524.065 75.3409 524.065 75.1364V75.0966C524.065 74.6004 523.925 74.2159 523.645 73.9432C523.368 73.6705 522.955 73.5341 522.406 73.5341C521.834 73.5341 521.384 73.661 521.054 73.9148C520.728 74.1648 520.503 74.4432 520.378 74.75L518.781 74.3864C518.971 73.8561 519.247 73.428 519.611 73.1023C519.978 72.7727 520.401 72.5341 520.878 72.3864C521.355 72.2348 521.857 72.1591 522.384 72.1591C522.732 72.1591 523.101 72.2008 523.491 72.2841C523.885 72.3636 524.253 72.5114 524.594 72.7273C524.938 72.9432 525.221 73.2519 525.44 73.6534C525.66 74.0511 525.77 74.5682 525.77 75.2045V81H524.111V79.8068H524.043C523.933 80.0265 523.768 80.2424 523.548 80.4545C523.329 80.6667 523.046 80.8428 522.702 80.983C522.357 81.1231 521.944 81.1932 521.463 81.1932ZM521.832 79.8295C522.302 79.8295 522.704 79.7367 523.037 79.5511C523.374 79.3655 523.63 79.1231 523.804 78.8239C523.982 78.5208 524.071 78.197 524.071 77.8523V76.7273C524.01 76.7879 523.893 76.8447 523.719 76.8977C523.548 76.947 523.353 76.9905 523.134 77.0284C522.914 77.0625 522.7 77.0947 522.491 77.125C522.283 77.1515 522.109 77.1742 521.969 77.1932C521.639 77.2348 521.338 77.3049 521.065 77.4034C520.796 77.5019 520.58 77.6439 520.418 77.8295C520.259 78.0114 520.179 78.2538 520.179 78.5568C520.179 78.9773 520.334 79.2955 520.645 79.5114C520.955 79.7235 521.351 79.8295 521.832 79.8295ZM528.033 84.2727V72.2727H529.692V73.6875H529.834C529.932 73.5057 530.074 73.2955 530.26 73.0568C530.446 72.8182 530.703 72.6098 531.033 72.4318C531.362 72.25 531.798 72.1591 532.339 72.1591C533.044 72.1591 533.673 72.3371 534.226 72.6932C534.779 73.0492 535.213 73.5625 535.527 74.233C535.845 74.9034 536.004 75.7102 536.004 76.6534C536.004 77.5966 535.847 78.4053 535.533 79.0795C535.218 79.75 534.786 80.267 534.237 80.6307C533.688 80.9905 533.061 81.1705 532.357 81.1705C531.826 81.1705 531.393 81.0814 531.055 80.9034C530.722 80.7254 530.461 80.517 530.271 80.2784C530.082 80.0398 529.936 79.8277 529.834 79.642H529.732V84.2727H528.033ZM529.697 76.6364C529.697 77.25 529.786 77.7879 529.964 78.25C530.143 78.7121 530.4 79.0739 530.737 79.3352C531.074 79.5928 531.487 79.7216 531.976 79.7216C532.483 79.7216 532.908 79.5871 533.249 79.3182C533.589 79.0455 533.847 78.6761 534.021 78.2102C534.199 77.7443 534.288 77.2197 534.288 76.6364C534.288 76.0606 534.201 75.5436 534.027 75.0852C533.857 74.6269 533.599 74.2652 533.254 74C532.913 73.7348 532.487 73.6023 531.976 73.6023C531.483 73.6023 531.067 73.7292 530.726 73.983C530.389 74.2367 530.133 74.5909 529.959 75.0455C529.785 75.5 529.697 76.0303 529.697 76.6364ZM537.908 84.2727V72.2727H539.567V73.6875H539.709C539.807 73.5057 539.949 73.2955 540.135 73.0568C540.321 72.8182 540.578 72.6098 540.908 72.4318C541.237 72.25 541.673 72.1591 542.214 72.1591C542.919 72.1591 543.548 72.3371 544.101 72.6932C544.654 73.0492 545.088 73.5625 545.402 74.233C545.72 74.9034 545.879 75.7102 545.879 76.6534C545.879 77.5966 545.722 78.4053 545.408 79.0795C545.093 79.75 544.661 80.267 544.112 80.6307C543.563 80.9905 542.936 81.1705 542.232 81.1705C541.701 81.1705 541.268 81.0814 540.93 80.9034C540.597 80.7254 540.336 80.517 540.146 80.2784C539.957 80.0398 539.811 79.8277 539.709 79.642H539.607V84.2727H537.908ZM539.572 76.6364C539.572 77.25 539.661 77.7879 539.839 78.25C540.018 78.7121 540.275 79.0739 540.612 79.3352C540.949 79.5928 541.362 79.7216 541.851 79.7216C542.358 79.7216 542.783 79.5871 543.124 79.3182C543.464 79.0455 543.722 78.6761 543.896 78.2102C544.074 77.7443 544.163 77.2197 544.163 76.6364C544.163 76.0606 544.076 75.5436 543.902 75.0852C543.732 74.6269 543.474 74.2652 543.129 74C542.788 73.7348 542.362 73.6023 541.851 73.6023C541.358 73.6023 540.942 73.7292 540.601 73.983C540.264 74.2367 540.008 74.5909 539.834 75.0455C539.66 75.5 539.572 76.0303 539.572 76.6364ZM552.175 69.3636V81H550.413V71.125H550.345L547.561 72.9432V71.2614L550.464 69.3636H552.175ZM556.884 79.4091L556.798 80.0284C556.741 80.483 556.645 80.9564 556.509 81.4489C556.376 81.9451 556.238 82.4053 556.094 82.8295C555.954 83.2538 555.838 83.5909 555.747 83.8409H554.543C554.592 83.6061 554.66 83.2879 554.747 82.8864C554.834 82.4886 554.92 82.0436 555.003 81.5511C555.086 81.0587 555.149 80.5568 555.19 80.0455L555.247 79.4091H556.884ZM565.869 81.1932C565.316 81.1932 564.816 81.0909 564.369 80.8864C563.922 80.678 563.568 80.3769 563.307 79.983C563.049 79.589 562.92 79.1061 562.92 78.5341C562.92 78.0417 563.015 77.6364 563.205 77.3182C563.394 77 563.65 76.7481 563.972 76.5625C564.294 76.3769 564.653 76.2367 565.051 76.142C565.449 76.0473 565.854 75.9754 566.267 75.9261C566.79 75.8655 567.214 75.8163 567.54 75.7784C567.866 75.7367 568.102 75.6705 568.25 75.5795C568.398 75.4886 568.472 75.3409 568.472 75.1364V75.0966C568.472 74.6004 568.331 74.2159 568.051 73.9432C567.775 73.6705 567.362 73.5341 566.812 73.5341C566.241 73.5341 565.79 73.661 565.46 73.9148C565.134 74.1648 564.909 74.4432 564.784 74.75L563.188 74.3864C563.377 73.8561 563.653 73.428 564.017 73.1023C564.384 72.7727 564.807 72.5341 565.284 72.3864C565.761 72.2348 566.263 72.1591 566.79 72.1591C567.138 72.1591 567.508 72.2008 567.898 72.2841C568.292 72.3636 568.659 72.5114 569 72.7273C569.345 72.9432 569.627 73.2519 569.847 73.6534C570.066 74.0511 570.176 74.5682 570.176 75.2045V81H568.517V79.8068H568.449C568.339 80.0265 568.174 80.2424 567.955 80.4545C567.735 80.6667 567.453 80.8428 567.108 80.983C566.763 81.1231 566.35 81.1932 565.869 81.1932ZM566.239 79.8295C566.708 79.8295 567.11 79.7367 567.443 79.5511C567.78 79.3655 568.036 79.1231 568.21 78.8239C568.388 78.5208 568.477 78.197 568.477 77.8523V76.7273C568.417 76.7879 568.299 76.8447 568.125 76.8977C567.955 76.947 567.759 76.9905 567.54 77.0284C567.32 77.0625 567.106 77.0947 566.898 77.125C566.689 77.1515 566.515 77.1742 566.375 77.1932C566.045 77.2348 565.744 77.3049 565.472 77.4034C565.203 77.5019 564.987 77.6439 564.824 77.8295C564.665 78.0114 564.585 78.2538 564.585 78.5568C564.585 78.9773 564.741 79.2955 565.051 79.5114C565.362 79.7235 565.758 79.8295 566.239 79.8295ZM572.439 84.2727V72.2727H574.098V73.6875H574.24C574.339 73.5057 574.481 73.2955 574.666 73.0568C574.852 72.8182 575.109 72.6098 575.439 72.4318C575.768 72.25 576.204 72.1591 576.746 72.1591C577.45 72.1591 578.079 72.3371 578.632 72.6932C579.185 73.0492 579.619 73.5625 579.933 74.233C580.251 74.9034 580.411 75.7102 580.411 76.6534C580.411 77.5966 580.253 78.4053 579.939 79.0795C579.625 79.75 579.193 80.267 578.643 80.6307C578.094 80.9905 577.467 81.1705 576.763 81.1705C576.232 81.1705 575.799 81.0814 575.462 80.9034C575.128 80.7254 574.867 80.517 574.678 80.2784C574.488 80.0398 574.342 79.8277 574.24 79.642H574.138V84.2727H572.439ZM574.104 76.6364C574.104 77.25 574.193 77.7879 574.371 78.25C574.549 78.7121 574.806 79.0739 575.143 79.3352C575.481 79.5928 575.893 79.7216 576.382 79.7216C576.89 79.7216 577.314 79.5871 577.655 79.3182C577.996 79.0455 578.253 78.6761 578.428 78.2102C578.606 77.7443 578.695 77.2197 578.695 76.6364C578.695 76.0606 578.607 75.5436 578.433 75.0852C578.263 74.6269 578.005 74.2652 577.661 74C577.32 73.7348 576.893 73.6023 576.382 73.6023C575.89 73.6023 575.473 73.7292 575.132 73.983C574.795 74.2367 574.539 74.5909 574.365 75.0455C574.191 75.5 574.104 76.0303 574.104 76.6364ZM582.314 84.2727V72.2727H583.973V73.6875H584.115C584.214 73.5057 584.356 73.2955 584.541 73.0568C584.727 72.8182 584.984 72.6098 585.314 72.4318C585.643 72.25 586.079 72.1591 586.621 72.1591C587.325 72.1591 587.954 72.3371 588.507 72.6932C589.06 73.0492 589.494 73.5625 589.808 74.233C590.126 74.9034 590.286 75.7102 590.286 76.6534C590.286 77.5966 590.128 78.4053 589.814 79.0795C589.5 79.75 589.068 80.267 588.518 80.6307C587.969 80.9905 587.342 81.1705 586.638 81.1705C586.107 81.1705 585.674 81.0814 585.337 80.9034C585.003 80.7254 584.742 80.517 584.553 80.2784C584.363 80.0398 584.217 79.8277 584.115 79.642H584.013V84.2727H582.314ZM583.979 76.6364C583.979 77.25 584.068 77.7879 584.246 78.25C584.424 78.7121 584.681 79.0739 585.018 79.3352C585.356 79.5928 585.768 79.7216 586.257 79.7216C586.765 79.7216 587.189 79.5871 587.53 79.3182C587.871 79.0455 588.128 78.6761 588.303 78.2102C588.481 77.7443 588.57 77.2197 588.57 76.6364C588.57 76.0606 588.482 75.5436 588.308 75.0852C588.138 74.6269 587.88 74.2652 587.536 74C587.195 73.7348 586.768 73.6023 586.257 73.6023C585.765 73.6023 585.348 73.7292 585.007 73.983C584.67 74.2367 584.414 74.5909 584.24 75.0455C584.066 75.5 583.979 76.0303 583.979 76.6364ZM592.166 81V79.7273L596.104 75.6477C596.524 75.2045 596.871 74.8163 597.143 74.483C597.42 74.1458 597.626 73.8258 597.763 73.5227C597.899 73.2197 597.967 72.8977 597.967 72.5568C597.967 72.1705 597.876 71.8371 597.695 71.5568C597.513 71.2727 597.265 71.0549 596.95 70.9034C596.636 70.7481 596.282 70.6705 595.888 70.6705C595.471 70.6705 595.107 70.7557 594.797 70.9261C594.486 71.0966 594.248 71.3371 594.081 71.6477C593.914 71.9583 593.831 72.322 593.831 72.7386H592.155C592.155 72.0303 592.318 71.411 592.643 70.8807C592.969 70.3504 593.416 69.9394 593.984 69.6477C594.553 69.3523 595.198 69.2045 595.922 69.2045C596.653 69.2045 597.297 69.3504 597.854 69.642C598.414 69.9299 598.852 70.3239 599.166 70.8239C599.481 71.3201 599.638 71.8807 599.638 72.5057C599.638 72.9375 599.556 73.3598 599.393 73.7727C599.234 74.1856 598.956 74.6458 598.558 75.1534C598.161 75.6572 597.607 76.2689 596.899 76.9886L594.587 79.4091V79.4943H599.825V81H592.166Z" fill="#94A3B8"/>
</svg>
