<svg width="365" height="260" viewBox="0 0 365 260" fill="none" xmlns="http://www.w3.org/2000/svg">
<rect x="59" y="101" width="67.2" height="38.4" rx="8" fill="#FF79C6"/>
<rect x="231.8" y="101" width="67.2" height="38.4" rx="8" fill="#94A3B8"/>
<rect x="141" y="173" width="67.2" height="38.4" rx="8" fill="#94A3B8"/>
<path d="M93.1 143.399C93.1 143.123 92.8761 142.899 92.6 142.899C92.3238 142.899 92.1 143.123 92.1 143.399H93.1ZM137.354 192.553C137.549 192.358 137.549 192.041 137.354 191.846L134.172 188.664C133.976 188.469 133.66 188.469 133.464 188.664C133.269 188.859 133.269 189.176 133.464 189.371L136.293 192.199L133.464 195.028C133.269 195.223 133.269 195.54 133.464 195.735C133.66 195.93 133.976 195.93 134.172 195.735L137.354 192.553ZM92.1 143.399V168.199H93.1V143.399H92.1ZM116.6 192.699H137V191.699H116.6V192.699ZM92.1 168.199C92.1 181.73 103.069 192.699 116.6 192.699V191.699C103.621 191.699 93.1 181.178 93.1 168.199H92.1Z" fill="#94A3B8"/>
<path d="M265.9 143.399C265.9 143.123 265.676 142.899 265.4 142.899C265.124 142.899 264.9 143.123 264.9 143.399H265.9ZM211.846 191.846C211.651 192.041 211.651 192.358 211.846 192.553L215.028 195.735C215.224 195.93 215.54 195.93 215.736 195.735C215.931 195.54 215.931 195.223 215.736 195.028L212.907 192.199L215.736 189.371C215.931 189.176 215.931 188.859 215.736 188.664C215.54 188.469 215.224 188.469 215.028 188.664L211.846 191.846ZM264.9 143.399V168.199H265.9V143.399H264.9ZM241.4 191.699H212.2V192.699H241.4V191.699ZM264.9 168.199C264.9 181.178 254.379 191.699 241.4 191.699V192.699C254.931 192.699 265.9 181.73 265.9 168.199H264.9Z" fill="#94A3B8"/>
<path d="M249.821 124H248.423L251.564 115.273H253.085L256.226 124H254.828L252.361 116.858H252.293L249.821 124ZM250.055 120.582H254.589V121.69H250.055V120.582ZM257.384 126.455V117.455H258.628V118.516H258.735C258.809 118.379 258.915 118.222 259.054 118.043C259.194 117.864 259.387 117.707 259.634 117.574C259.881 117.438 260.208 117.369 260.614 117.369C261.142 117.369 261.614 117.503 262.029 117.77C262.444 118.037 262.769 118.422 263.005 118.925C263.243 119.428 263.363 120.033 263.363 120.74C263.363 121.447 263.245 122.054 263.009 122.56C262.773 123.062 262.449 123.45 262.037 123.723C261.625 123.993 261.155 124.128 260.627 124.128C260.229 124.128 259.904 124.061 259.651 123.928C259.401 123.794 259.205 123.638 259.063 123.459C258.921 123.28 258.811 123.121 258.735 122.982H258.658V126.455H257.384ZM258.632 120.727C258.632 121.187 258.699 121.591 258.833 121.938C258.966 122.284 259.159 122.555 259.412 122.751C259.665 122.945 259.975 123.041 260.341 123.041C260.722 123.041 261.04 122.94 261.296 122.739C261.551 122.534 261.745 122.257 261.875 121.908C262.009 121.558 262.076 121.165 262.076 120.727C262.076 120.295 262.01 119.908 261.88 119.564C261.752 119.22 261.559 118.949 261.3 118.75C261.044 118.551 260.725 118.452 260.341 118.452C259.972 118.452 259.659 118.547 259.404 118.737C259.151 118.928 258.959 119.193 258.828 119.534C258.698 119.875 258.632 120.273 258.632 120.727ZM264.79 126.455V117.455H266.034V118.516H266.141C266.215 118.379 266.321 118.222 266.461 118.043C266.6 117.864 266.793 117.707 267.04 117.574C267.287 117.438 267.614 117.369 268.02 117.369C268.549 117.369 269.02 117.503 269.435 117.77C269.85 118.037 270.175 118.422 270.411 118.925C270.65 119.428 270.769 120.033 270.769 120.74C270.769 121.447 270.651 122.054 270.415 122.56C270.179 123.062 269.855 123.45 269.444 123.723C269.032 123.993 268.561 124.128 268.033 124.128C267.635 124.128 267.31 124.061 267.057 123.928C266.807 123.794 266.611 123.638 266.469 123.459C266.327 123.28 266.218 123.121 266.141 122.982H266.064V126.455H264.79ZM266.039 120.727C266.039 121.187 266.105 121.591 266.239 121.938C266.373 122.284 266.566 122.555 266.819 122.751C267.071 122.945 267.381 123.041 267.748 123.041C268.128 123.041 268.446 122.94 268.702 122.739C268.958 122.534 269.151 122.257 269.282 121.908C269.415 121.558 269.482 121.165 269.482 120.727C269.482 120.295 269.417 119.908 269.286 119.564C269.158 119.22 268.965 118.949 268.706 118.75C268.451 118.551 268.131 118.452 267.748 118.452C267.378 118.452 267.066 118.547 266.81 118.737C266.557 118.928 266.365 119.193 266.235 119.534C266.104 119.875 266.039 120.273 266.039 120.727ZM275.355 124V123.045L278.308 119.986C278.624 119.653 278.884 119.362 279.088 119.112C279.295 118.859 279.45 118.619 279.553 118.392C279.655 118.165 279.706 117.923 279.706 117.668C279.706 117.378 279.638 117.128 279.501 116.918C279.365 116.705 279.179 116.541 278.943 116.428C278.707 116.311 278.442 116.253 278.146 116.253C277.834 116.253 277.561 116.317 277.328 116.445C277.095 116.572 276.916 116.753 276.791 116.986C276.666 117.219 276.604 117.491 276.604 117.804H275.347C275.347 117.273 275.469 116.808 275.713 116.411C275.957 116.013 276.293 115.705 276.719 115.486C277.145 115.264 277.629 115.153 278.172 115.153C278.72 115.153 279.203 115.263 279.621 115.482C280.041 115.697 280.369 115.993 280.605 116.368C280.841 116.74 280.959 117.161 280.959 117.629C280.959 117.953 280.898 118.27 280.776 118.58C280.656 118.889 280.447 119.234 280.149 119.615C279.851 119.993 279.436 120.452 278.905 120.991L277.17 122.807V122.871H281.099V124H275.355Z" fill="white"/>
<path d="M167.322 196V187.273H168.639V194.866H172.593V196H167.322ZM173.993 196V189.455H175.267V196H173.993ZM174.637 188.445C174.415 188.445 174.225 188.371 174.066 188.223C173.909 188.072 173.831 187.893 173.831 187.686C173.831 187.476 173.909 187.297 174.066 187.149C174.225 186.999 174.415 186.923 174.637 186.923C174.858 186.923 175.047 186.999 175.203 187.149C175.363 187.297 175.442 187.476 175.442 187.686C175.442 187.893 175.363 188.072 175.203 188.223C175.047 188.371 174.858 188.445 174.637 188.445ZM177.084 196V187.273H178.358V190.516H178.435C178.509 190.379 178.615 190.222 178.754 190.043C178.893 189.864 179.087 189.707 179.334 189.574C179.581 189.438 179.908 189.369 180.314 189.369C180.842 189.369 181.314 189.503 181.729 189.77C182.143 190.037 182.469 190.422 182.705 190.925C182.943 191.428 183.062 192.033 183.062 192.74C183.062 193.447 182.945 194.054 182.709 194.56C182.473 195.062 182.149 195.45 181.737 195.723C181.325 195.993 180.855 196.128 180.327 196.128C179.929 196.128 179.604 196.061 179.351 195.928C179.101 195.794 178.905 195.638 178.763 195.459C178.621 195.28 178.511 195.121 178.435 194.982H178.328V196H177.084ZM178.332 192.727C178.332 193.187 178.399 193.591 178.533 193.938C178.666 194.284 178.859 194.555 179.112 194.751C179.365 194.945 179.675 195.041 180.041 195.041C180.422 195.041 180.74 194.94 180.996 194.739C181.251 194.534 181.445 194.257 181.575 193.908C181.709 193.558 181.776 193.165 181.776 192.727C181.776 192.295 181.71 191.908 181.58 191.564C181.452 191.22 181.259 190.949 181 190.75C180.744 190.551 180.425 190.452 180.041 190.452C179.672 190.452 179.359 190.547 179.104 190.737C178.851 190.928 178.659 191.193 178.528 191.534C178.398 191.875 178.332 192.273 178.332 192.727Z" fill="white"/>
<path d="M79.1648 124H77.767L80.9077 115.273H82.429L85.5696 124H84.1719L81.7045 116.858H81.6364L79.1648 124ZM79.3991 120.582H83.9332V121.69H79.3991V120.582ZM86.7276 126.455V117.455H87.9719V118.516H88.0785C88.1523 118.379 88.2589 118.222 88.3981 118.043C88.5373 117.864 88.7305 117.707 88.9776 117.574C89.2248 117.438 89.5515 117.369 89.9577 117.369C90.4862 117.369 90.9577 117.503 91.3725 117.77C91.7873 118.037 92.1126 118.422 92.3484 118.925C92.587 119.428 92.7063 120.033 92.7063 120.74C92.7063 121.447 92.5884 122.054 92.3526 122.56C92.1168 123.062 91.793 123.45 91.381 123.723C90.9691 123.993 90.4989 124.128 89.9705 124.128C89.5728 124.128 89.2475 124.061 88.9947 123.928C88.7447 123.794 88.5487 123.638 88.4066 123.459C88.2646 123.28 88.1552 123.121 88.0785 122.982H88.0018V126.455H86.7276ZM87.9762 120.727C87.9762 121.187 88.043 121.591 88.1765 121.938C88.31 122.284 88.5032 122.555 88.756 122.751C89.0089 122.945 89.3185 123.041 89.685 123.041C90.0657 123.041 90.3839 122.94 90.6396 122.739C90.8952 122.534 91.0884 122.257 91.2191 121.908C91.3526 121.558 91.4194 121.165 91.4194 120.727C91.4194 120.295 91.354 119.908 91.2234 119.564C91.0955 119.22 90.9023 118.949 90.6438 118.75C90.3881 118.551 90.0685 118.452 89.685 118.452C89.3157 118.452 89.0032 118.547 88.7475 118.737C88.4947 118.928 88.3029 119.193 88.1722 119.534C88.0415 119.875 87.9762 120.273 87.9762 120.727ZM94.1339 126.455V117.455H95.3782V118.516H95.4847C95.5586 118.379 95.6651 118.222 95.8043 118.043C95.9435 117.864 96.1367 117.707 96.3839 117.574C96.631 117.438 96.9577 117.369 97.364 117.369C97.8924 117.369 98.364 117.503 98.7788 117.77C99.1935 118.037 99.5188 118.422 99.7546 118.925C99.9933 119.428 100.113 120.033 100.113 120.74C100.113 121.447 99.9947 122.054 99.7589 122.56C99.5231 123.062 99.1992 123.45 98.7873 123.723C98.3754 123.993 97.9052 124.128 97.3768 124.128C96.979 124.128 96.6538 124.061 96.4009 123.928C96.1509 123.794 95.9549 123.638 95.8129 123.459C95.6708 123.28 95.5614 123.121 95.4847 122.982H95.408V126.455H94.1339ZM95.3825 120.727C95.3825 121.187 95.4492 121.591 95.5827 121.938C95.7163 122.284 95.9094 122.555 96.1623 122.751C96.4151 122.945 96.7248 123.041 97.0913 123.041C97.4719 123.041 97.7901 122.94 98.0458 122.739C98.3015 122.534 98.4947 122.257 98.6254 121.908C98.7589 121.558 98.8256 121.165 98.8256 120.727C98.8256 120.295 98.7603 119.908 98.6296 119.564C98.5018 119.22 98.3086 118.949 98.0501 118.75C97.7944 118.551 97.4748 118.452 97.0913 118.452C96.7219 118.452 96.4094 118.547 96.1538 118.737C95.9009 118.928 95.7092 119.193 95.5785 119.534C95.4478 119.875 95.3825 120.273 95.3825 120.727ZM108.01 115.273V124H106.689V116.594H106.638L104.55 117.957V116.696L106.727 115.273H108.01Z" fill="white"/>
<path d="M111.326 58.1477H109.553C109.485 57.7689 109.358 57.4356 109.173 57.1477C108.987 56.8598 108.76 56.6155 108.491 56.4148C108.222 56.214 107.921 56.0625 107.587 55.9602C107.258 55.858 106.907 55.8068 106.536 55.8068C105.866 55.8068 105.265 55.9754 104.735 56.3125C104.209 56.6496 103.792 57.1439 103.485 57.7955C103.182 58.447 103.031 59.2424 103.031 60.1818C103.031 61.1288 103.182 61.928 103.485 62.5795C103.792 63.2311 104.21 63.7235 104.741 64.0568C105.271 64.3902 105.868 64.5568 106.531 64.5568C106.898 64.5568 107.246 64.5076 107.576 64.4091C107.909 64.3068 108.21 64.1572 108.479 63.9602C108.748 63.7633 108.976 63.5227 109.161 63.2386C109.351 62.9508 109.481 62.6212 109.553 62.25L111.326 62.2557C111.231 62.8277 111.048 63.3542 110.775 63.8352C110.506 64.3125 110.159 64.7254 109.735 65.0739C109.315 65.4186 108.834 65.6856 108.292 65.875C107.75 66.0644 107.159 66.1591 106.519 66.1591C105.512 66.1591 104.614 65.9205 103.826 65.4432C103.038 64.9621 102.417 64.2746 101.962 63.3807C101.512 62.4867 101.286 61.4205 101.286 60.1818C101.286 58.9394 101.513 57.8731 101.968 56.983C102.423 56.089 103.044 55.4034 103.832 54.9261C104.62 54.4451 105.515 54.2045 106.519 54.2045C107.137 54.2045 107.712 54.2936 108.246 54.4716C108.784 54.6458 109.267 54.9034 109.695 55.2443C110.123 55.5814 110.478 55.9943 110.758 56.483C111.038 56.9678 111.228 57.5227 111.326 58.1477ZM114.989 60.8182V66H113.29V54.3636H114.967V58.6932H115.075C115.279 58.2235 115.592 57.8504 116.012 57.5739C116.433 57.2973 116.982 57.1591 117.66 57.1591C118.258 57.1591 118.781 57.2822 119.228 57.5284C119.679 57.7746 120.027 58.142 120.273 58.6307C120.523 59.1155 120.648 59.7216 120.648 60.4489V66H118.95V60.6534C118.95 60.0133 118.785 59.517 118.455 59.1648C118.126 58.8087 117.667 58.6307 117.08 58.6307C116.679 58.6307 116.319 58.7159 116.001 58.8864C115.686 59.0568 115.438 59.3068 115.256 59.6364C115.078 59.9621 114.989 60.3561 114.989 60.8182ZM125.455 66.1932C124.902 66.1932 124.402 66.0909 123.955 65.8864C123.508 65.678 123.154 65.3769 122.893 64.983C122.635 64.589 122.506 64.1061 122.506 63.5341C122.506 63.0417 122.601 62.6364 122.79 62.3182C122.98 62 123.236 61.7481 123.558 61.5625C123.879 61.3769 124.239 61.2367 124.637 61.142C125.035 61.0473 125.44 60.9754 125.853 60.9261C126.376 60.8655 126.8 60.8163 127.126 60.7784C127.451 60.7367 127.688 60.6705 127.836 60.5795C127.984 60.4886 128.058 60.3409 128.058 60.1364V60.0966C128.058 59.6004 127.917 59.2159 127.637 58.9432C127.361 58.6705 126.948 58.5341 126.398 58.5341C125.826 58.5341 125.376 58.661 125.046 58.9148C124.72 59.1648 124.495 59.4432 124.37 59.75L122.773 59.3864C122.963 58.8561 123.239 58.428 123.603 58.1023C123.97 57.7727 124.393 57.5341 124.87 57.3864C125.347 57.2348 125.849 57.1591 126.376 57.1591C126.724 57.1591 127.094 57.2008 127.484 57.2841C127.878 57.3636 128.245 57.5114 128.586 57.7273C128.931 57.9432 129.213 58.2519 129.433 58.6534C129.652 59.0511 129.762 59.5682 129.762 60.2045V66H128.103V64.8068H128.035C127.925 65.0265 127.76 65.2424 127.54 65.4545C127.321 65.6667 127.039 65.8428 126.694 65.983C126.349 66.1231 125.936 66.1932 125.455 66.1932ZM125.825 64.8295C126.294 64.8295 126.696 64.7367 127.029 64.5511C127.366 64.3655 127.622 64.1231 127.796 63.8239C127.974 63.5208 128.063 63.197 128.063 62.8523V61.7273C128.003 61.7879 127.885 61.8447 127.711 61.8977C127.54 61.947 127.345 61.9905 127.126 62.0284C126.906 62.0625 126.692 62.0947 126.484 62.125C126.275 62.1515 126.101 62.1742 125.961 62.1932C125.631 62.2348 125.33 62.3049 125.058 62.4034C124.789 62.5019 124.573 62.6439 124.41 62.8295C124.251 63.0114 124.171 63.2538 124.171 63.5568C124.171 63.9773 124.326 64.2955 124.637 64.5114C124.948 64.7235 125.344 64.8295 125.825 64.8295ZM133.724 60.8182V66H132.025V57.2727H133.656V58.6932H133.763C133.964 58.2311 134.279 57.8598 134.707 57.5795C135.138 57.2992 135.682 57.1591 136.337 57.1591C136.932 57.1591 137.453 57.2841 137.9 57.5341C138.347 57.7803 138.693 58.1477 138.94 58.6364C139.186 59.125 139.309 59.7292 139.309 60.4489V66H137.61V60.6534C137.61 60.0208 137.445 59.5265 137.116 59.1705C136.786 58.8106 136.334 58.6307 135.758 58.6307C135.364 58.6307 135.013 58.7159 134.707 58.8864C134.404 59.0568 134.163 59.3068 133.985 59.6364C133.811 59.9621 133.724 60.3561 133.724 60.8182ZM145.246 69.4545C144.553 69.4545 143.957 69.3636 143.457 69.1818C142.96 69 142.555 68.7595 142.241 68.4602C141.926 68.161 141.692 67.8333 141.536 67.4773L142.996 66.875C143.099 67.0417 143.235 67.2178 143.406 67.4034C143.58 67.5928 143.815 67.7538 144.11 67.8864C144.409 68.0189 144.794 68.0852 145.263 68.0852C145.907 68.0852 146.44 67.928 146.86 67.6136C147.281 67.303 147.491 66.8068 147.491 66.125V64.4091H147.383C147.281 64.5947 147.133 64.8011 146.94 65.0284C146.75 65.2557 146.489 65.4527 146.156 65.6193C145.822 65.786 145.388 65.8693 144.854 65.8693C144.165 65.8693 143.544 65.7083 142.991 65.3864C142.442 65.0606 142.006 64.5814 141.684 63.9489C141.366 63.3125 141.207 62.5303 141.207 61.6023C141.207 60.6742 141.364 59.8788 141.678 59.2159C141.996 58.553 142.432 58.0455 142.985 57.6932C143.538 57.3371 144.165 57.1591 144.866 57.1591C145.407 57.1591 145.845 57.25 146.178 57.4318C146.512 57.6098 146.771 57.8182 146.957 58.0568C147.146 58.2955 147.292 58.5057 147.394 58.6875H147.519V57.2727H149.184V66.1932C149.184 66.9432 149.01 67.5587 148.661 68.0398C148.313 68.5208 147.841 68.8769 147.246 69.108C146.656 69.339 145.989 69.4545 145.246 69.4545ZM145.229 64.4602C145.718 64.4602 146.131 64.3466 146.468 64.1193C146.809 63.8883 147.067 63.5587 147.241 63.1307C147.419 62.6989 147.508 62.1818 147.508 61.5795C147.508 60.9924 147.421 60.4754 147.246 60.0284C147.072 59.5814 146.817 59.233 146.479 58.983C146.142 58.7292 145.726 58.6023 145.229 58.6023C144.718 58.6023 144.292 58.7348 143.951 59C143.61 59.2614 143.353 59.6174 143.178 60.0682C143.008 60.5189 142.923 61.0227 142.923 61.5795C142.923 62.1515 143.01 62.6534 143.184 63.0852C143.358 63.517 143.616 63.8542 143.957 64.0966C144.301 64.339 144.726 64.4602 145.229 64.4602ZM151.462 66V57.2727H153.161V66H151.462ZM152.32 55.9261C152.025 55.9261 151.771 55.8277 151.559 55.6307C151.351 55.4299 151.246 55.1913 151.246 54.9148C151.246 54.6345 151.351 54.3958 151.559 54.1989C151.771 53.9981 152.025 53.8977 152.32 53.8977C152.616 53.8977 152.868 53.9981 153.076 54.1989C153.288 54.3958 153.394 54.6345 153.394 54.9148C153.394 55.1913 153.288 55.4299 153.076 55.6307C152.868 55.8277 152.616 55.9261 152.32 55.9261ZM157.146 60.8182V66H155.447V57.2727H157.077V58.6932H157.185C157.386 58.2311 157.701 57.8598 158.129 57.5795C158.56 57.2992 159.104 57.1591 159.759 57.1591C160.354 57.1591 160.875 57.2841 161.322 57.5341C161.769 57.7803 162.115 58.1477 162.362 58.6364C162.608 59.125 162.731 59.7292 162.731 60.4489V66H161.032V60.6534C161.032 60.0208 160.867 59.5265 160.538 59.1705C160.208 58.8106 159.755 58.6307 159.18 58.6307C158.786 58.6307 158.435 58.7159 158.129 58.8864C157.826 59.0568 157.585 59.3068 157.407 59.6364C157.233 59.9621 157.146 60.3561 157.146 60.8182ZM168.668 69.4545C167.975 69.4545 167.379 69.3636 166.879 69.1818C166.382 69 165.977 68.7595 165.663 68.4602C165.348 68.161 165.113 67.8333 164.958 67.4773L166.418 66.875C166.521 67.0417 166.657 67.2178 166.827 67.4034C167.002 67.5928 167.237 67.7538 167.532 67.8864C167.831 68.0189 168.216 68.0852 168.685 68.0852C169.329 68.0852 169.862 67.928 170.282 67.6136C170.702 67.303 170.913 66.8068 170.913 66.125V64.4091H170.805C170.702 64.5947 170.555 64.8011 170.362 65.0284C170.172 65.2557 169.911 65.4527 169.577 65.6193C169.244 65.786 168.81 65.8693 168.276 65.8693C167.587 65.8693 166.966 65.7083 166.413 65.3864C165.863 65.0606 165.428 64.5814 165.106 63.9489C164.788 63.3125 164.629 62.5303 164.629 61.6023C164.629 60.6742 164.786 59.8788 165.1 59.2159C165.418 58.553 165.854 58.0455 166.407 57.6932C166.96 57.3371 167.587 57.1591 168.288 57.1591C168.829 57.1591 169.267 57.25 169.6 57.4318C169.933 57.6098 170.193 57.8182 170.379 58.0568C170.568 58.2955 170.714 58.5057 170.816 58.6875H170.941V57.2727H172.606V66.1932C172.606 66.9432 172.432 67.5587 172.083 68.0398C171.735 68.5208 171.263 68.8769 170.668 69.108C170.077 69.339 169.411 69.4545 168.668 69.4545ZM168.651 64.4602C169.14 64.4602 169.553 64.3466 169.89 64.1193C170.231 63.8883 170.488 63.5587 170.663 63.1307C170.841 62.6989 170.93 62.1818 170.93 61.5795C170.93 60.9924 170.843 60.4754 170.668 60.0284C170.494 59.5814 170.238 59.233 169.901 58.983C169.564 58.7292 169.147 58.6023 168.651 58.6023C168.14 58.6023 167.714 58.7348 167.373 59C167.032 59.2614 166.774 59.6174 166.6 60.0682C166.43 60.5189 166.344 61.0227 166.344 61.5795C166.344 62.1515 166.432 62.6534 166.606 63.0852C166.78 63.517 167.038 63.8542 167.379 64.0966C167.723 64.339 168.147 64.4602 168.651 64.4602ZM181.658 66.1932C181.105 66.1932 180.605 66.0909 180.158 65.8864C179.711 65.678 179.357 65.3769 179.096 64.983C178.838 64.589 178.71 64.1061 178.71 63.5341C178.71 63.0417 178.804 62.6364 178.994 62.3182C179.183 62 179.439 61.7481 179.761 61.5625C180.083 61.3769 180.442 61.2367 180.84 61.142C181.238 61.0473 181.643 60.9754 182.056 60.9261C182.579 60.8655 183.003 60.8163 183.329 60.7784C183.655 60.7367 183.891 60.6705 184.039 60.5795C184.187 60.4886 184.261 60.3409 184.261 60.1364V60.0966C184.261 59.6004 184.121 59.2159 183.84 58.9432C183.564 58.6705 183.151 58.5341 182.602 58.5341C182.03 58.5341 181.579 58.661 181.249 58.9148C180.924 59.1648 180.698 59.4432 180.573 59.75L178.977 59.3864C179.166 58.8561 179.442 58.428 179.806 58.1023C180.174 57.7727 180.596 57.5341 181.073 57.3864C181.55 57.2348 182.052 57.1591 182.579 57.1591C182.927 57.1591 183.297 57.2008 183.687 57.2841C184.081 57.3636 184.448 57.5114 184.789 57.7273C185.134 57.9432 185.416 58.2519 185.636 58.6534C185.855 59.0511 185.965 59.5682 185.965 60.2045V66H184.306V64.8068H184.238C184.128 65.0265 183.963 65.2424 183.744 65.4545C183.524 65.6667 183.242 65.8428 182.897 65.983C182.552 66.1231 182.139 66.1932 181.658 66.1932ZM182.028 64.8295C182.497 64.8295 182.899 64.7367 183.232 64.5511C183.569 64.3655 183.825 64.1231 183.999 63.8239C184.177 63.5208 184.266 63.197 184.266 62.8523V61.7273C184.206 61.7879 184.088 61.8447 183.914 61.8977C183.744 61.947 183.549 61.9905 183.329 62.0284C183.109 62.0625 182.895 62.0947 182.687 62.125C182.478 62.1515 182.304 62.1742 182.164 62.1932C181.835 62.2348 181.533 62.3049 181.261 62.4034C180.992 62.5019 180.776 62.6439 180.613 62.8295C180.454 63.0114 180.374 63.2538 180.374 63.5568C180.374 63.9773 180.53 64.2955 180.84 64.5114C181.151 64.7235 181.547 64.8295 182.028 64.8295ZM188.228 69.2727V57.2727H189.887V58.6875H190.029C190.128 58.5057 190.27 58.2955 190.455 58.0568C190.641 57.8182 190.898 57.6098 191.228 57.4318C191.558 57.25 191.993 57.1591 192.535 57.1591C193.239 57.1591 193.868 57.3371 194.421 57.6932C194.974 58.0492 195.408 58.5625 195.722 59.233C196.04 59.9034 196.2 60.7102 196.2 61.6534C196.2 62.5966 196.042 63.4053 195.728 64.0795C195.414 64.75 194.982 65.267 194.433 65.6307C193.883 65.9905 193.256 66.1705 192.552 66.1705C192.022 66.1705 191.588 66.0814 191.251 65.9034C190.917 65.7254 190.656 65.517 190.467 65.2784C190.277 65.0398 190.131 64.8277 190.029 64.642H189.927V69.2727H188.228ZM189.893 61.6364C189.893 62.25 189.982 62.7879 190.16 63.25C190.338 63.7121 190.595 64.0739 190.933 64.3352C191.27 64.5928 191.683 64.7216 192.171 64.7216C192.679 64.7216 193.103 64.5871 193.444 64.3182C193.785 64.0455 194.042 63.6761 194.217 63.2102C194.395 62.7443 194.484 62.2197 194.484 61.6364C194.484 61.0606 194.397 60.5436 194.222 60.0852C194.052 59.6269 193.794 59.2652 193.45 59C193.109 58.7348 192.683 58.6023 192.171 58.6023C191.679 58.6023 191.262 58.7292 190.921 58.983C190.584 59.2367 190.328 59.5909 190.154 60.0455C189.98 60.5 189.893 61.0303 189.893 61.6364ZM198.103 69.2727V57.2727H199.762V58.6875H199.904C200.003 58.5057 200.145 58.2955 200.33 58.0568C200.516 57.8182 200.773 57.6098 201.103 57.4318C201.433 57.25 201.868 57.1591 202.41 57.1591C203.114 57.1591 203.743 57.3371 204.296 57.6932C204.849 58.0492 205.283 58.5625 205.597 59.233C205.915 59.9034 206.075 60.7102 206.075 61.6534C206.075 62.5966 205.917 63.4053 205.603 64.0795C205.289 64.75 204.857 65.267 204.308 65.6307C203.758 65.9905 203.131 66.1705 202.427 66.1705C201.897 66.1705 201.463 66.0814 201.126 65.9034C200.792 65.7254 200.531 65.517 200.342 65.2784C200.152 65.0398 200.006 64.8277 199.904 64.642H199.802V69.2727H198.103ZM199.768 61.6364C199.768 62.25 199.857 62.7879 200.035 63.25C200.213 63.7121 200.47 64.0739 200.808 64.3352C201.145 64.5928 201.558 64.7216 202.046 64.7216C202.554 64.7216 202.978 64.5871 203.319 64.3182C203.66 64.0455 203.917 63.6761 204.092 63.2102C204.27 62.7443 204.359 62.2197 204.359 61.6364C204.359 61.0606 204.272 60.5436 204.097 60.0852C203.927 59.6269 203.669 59.2652 203.325 59C202.984 58.7348 202.558 58.6023 202.046 58.6023C201.554 58.6023 201.137 58.7292 200.796 58.983C200.459 59.2367 200.203 59.5909 200.029 60.0455C199.855 60.5 199.768 61.0303 199.768 61.6364ZM212.37 54.3636V66H210.609V56.125H210.54L207.756 57.9432V56.2614L210.66 54.3636H212.37ZM223.451 66.1761C222.606 66.1761 221.879 65.9848 221.269 65.6023C220.663 65.2159 220.197 64.6837 219.871 64.0057C219.546 63.3277 219.383 62.5511 219.383 61.6761C219.383 60.7898 219.549 60.0076 219.883 59.3295C220.216 58.6477 220.686 58.1155 221.292 57.733C221.898 57.3504 222.612 57.1591 223.434 57.1591C224.097 57.1591 224.688 57.2822 225.207 57.5284C225.726 57.7708 226.144 58.1117 226.462 58.5511C226.784 58.9905 226.976 59.5038 227.036 60.0909H225.383C225.292 59.6818 225.084 59.3295 224.758 59.0341C224.436 58.7386 224.004 58.5909 223.462 58.5909C222.989 58.5909 222.574 58.7159 222.218 58.9659C221.866 59.2121 221.591 59.5644 221.394 60.0227C221.197 60.4773 221.099 61.0152 221.099 61.6364C221.099 62.2727 221.195 62.822 221.388 63.2841C221.582 63.7462 221.854 64.1042 222.207 64.358C222.563 64.6117 222.981 64.7386 223.462 64.7386C223.784 64.7386 224.076 64.6799 224.337 64.5625C224.603 64.4413 224.824 64.2689 225.002 64.0455C225.184 63.822 225.311 63.553 225.383 63.2386H227.036C226.976 63.803 226.792 64.3068 226.485 64.75C226.178 65.1932 225.767 65.5417 225.252 65.7955C224.741 66.0492 224.14 66.1761 223.451 66.1761ZM231.393 66.1932C230.84 66.1932 230.34 66.0909 229.893 65.8864C229.446 65.678 229.092 65.3769 228.83 64.983C228.573 64.589 228.444 64.1061 228.444 63.5341C228.444 63.0417 228.539 62.6364 228.728 62.3182C228.917 62 229.173 61.7481 229.495 61.5625C229.817 61.3769 230.177 61.2367 230.575 61.142C230.972 61.0473 231.378 60.9754 231.79 60.9261C232.313 60.8655 232.737 60.8163 233.063 60.7784C233.389 60.7367 233.626 60.6705 233.773 60.5795C233.921 60.4886 233.995 60.3409 233.995 60.1364V60.0966C233.995 59.6004 233.855 59.2159 233.575 58.9432C233.298 58.6705 232.885 58.5341 232.336 58.5341C231.764 58.5341 231.313 58.661 230.984 58.9148C230.658 59.1648 230.433 59.4432 230.308 59.75L228.711 59.3864C228.9 58.8561 229.177 58.428 229.54 58.1023C229.908 57.7727 230.33 57.5341 230.808 57.3864C231.285 57.2348 231.787 57.1591 232.313 57.1591C232.662 57.1591 233.031 57.2008 233.421 57.2841C233.815 57.3636 234.183 57.5114 234.523 57.7273C234.868 57.9432 235.15 58.2519 235.37 58.6534C235.59 59.0511 235.7 59.5682 235.7 60.2045V66H234.04V64.8068H233.972C233.862 65.0265 233.698 65.2424 233.478 65.4545C233.258 65.6667 232.976 65.8428 232.631 65.983C232.287 66.1231 231.874 66.1932 231.393 66.1932ZM231.762 64.8295C232.232 64.8295 232.633 64.7367 232.967 64.5511C233.304 64.3655 233.559 64.1231 233.734 63.8239C233.912 63.5208 234.001 63.197 234.001 62.8523V61.7273C233.94 61.7879 233.823 61.8447 233.648 61.8977C233.478 61.947 233.283 61.9905 233.063 62.0284C232.844 62.0625 232.629 62.0947 232.421 62.125C232.213 62.1515 232.039 62.1742 231.898 62.1932C231.569 62.2348 231.268 62.3049 230.995 62.4034C230.726 62.5019 230.51 62.6439 230.347 62.8295C230.188 63.0114 230.109 63.2538 230.109 63.5568C230.109 63.9773 230.264 64.2955 230.575 64.5114C230.885 64.7235 231.281 64.8295 231.762 64.8295ZM239.661 60.8182V66H237.962V57.2727H239.593V58.6932H239.701C239.902 58.2311 240.216 57.8598 240.644 57.5795C241.076 57.2992 241.62 57.1591 242.275 57.1591C242.87 57.1591 243.39 57.2841 243.837 57.5341C244.284 57.7803 244.631 58.1477 244.877 58.6364C245.123 59.125 245.246 59.7292 245.246 60.4489V66H243.548V60.6534C243.548 60.0208 243.383 59.5265 243.053 59.1705C242.724 58.8106 242.271 58.6307 241.695 58.6307C241.301 58.6307 240.951 58.7159 240.644 58.8864C240.341 59.0568 240.101 59.3068 239.923 59.6364C239.748 59.9621 239.661 60.3561 239.661 60.8182ZM119.248 85.1761C118.43 85.1761 117.716 84.9886 117.106 84.6136C116.496 84.2386 116.022 83.714 115.685 83.0398C115.348 82.3655 115.18 81.5777 115.18 80.6761C115.18 79.7708 115.348 78.9792 115.685 78.3011C116.022 77.6231 116.496 77.0966 117.106 76.7216C117.716 76.3466 118.43 76.1591 119.248 76.1591C120.066 76.1591 120.78 76.3466 121.39 76.7216C122 77.0966 122.473 77.6231 122.81 78.3011C123.147 78.9792 123.316 79.7708 123.316 80.6761C123.316 81.5777 123.147 82.3655 122.81 83.0398C122.473 83.714 122 84.2386 121.39 84.6136C120.78 84.9886 120.066 85.1761 119.248 85.1761ZM119.254 83.75C119.784 83.75 120.223 83.6098 120.572 83.3295C120.92 83.0492 121.178 82.6761 121.344 82.2102C121.515 81.7443 121.6 81.2311 121.6 80.6705C121.6 80.1136 121.515 79.6023 121.344 79.1364C121.178 78.6667 120.92 78.2898 120.572 78.0057C120.223 77.7216 119.784 77.5795 119.254 77.5795C118.719 77.5795 118.276 77.7216 117.924 78.0057C117.576 78.2898 117.316 78.6667 117.146 79.1364C116.979 79.6023 116.896 80.1136 116.896 80.6705C116.896 81.2311 116.979 81.7443 117.146 82.2102C117.316 82.6761 117.576 83.0492 117.924 83.3295C118.276 83.6098 118.719 83.75 119.254 83.75ZM126.911 79.8182V85H125.212V76.2727H126.843V77.6932H126.951C127.152 77.2311 127.466 76.8598 127.894 76.5795C128.326 76.2992 128.87 76.1591 129.525 76.1591C130.12 76.1591 130.64 76.2841 131.087 76.5341C131.534 76.7803 131.881 77.1477 132.127 77.6364C132.373 78.125 132.496 78.7292 132.496 79.4489V85H130.798V79.6534C130.798 79.0208 130.633 78.5265 130.303 78.1705C129.974 77.8106 129.521 77.6307 128.945 77.6307C128.551 77.6307 128.201 77.7159 127.894 77.8864C127.591 78.0568 127.351 78.3068 127.173 78.6364C126.998 78.9621 126.911 79.3561 126.911 79.8182ZM136.474 73.3636V85H134.775V73.3636H136.474ZM139.833 88.2727C139.579 88.2727 139.348 88.2519 139.14 88.2102C138.932 88.1723 138.776 88.1307 138.674 88.0852L139.083 86.6932C139.394 86.7765 139.67 86.8125 139.913 86.8011C140.155 86.7898 140.369 86.6989 140.555 86.5284C140.744 86.358 140.911 86.0795 141.055 85.6932L141.265 85.1136L138.072 76.2727H139.89L142.1 83.0455H142.191L144.401 76.2727H146.225L142.629 86.1648C142.462 86.6193 142.25 87.0038 141.992 87.3182C141.735 87.6364 141.428 87.875 141.072 88.0341C140.716 88.1932 140.303 88.2727 139.833 88.2727ZM154.596 85.1932C154.043 85.1932 153.543 85.0909 153.096 84.8864C152.649 84.678 152.295 84.3769 152.033 83.983C151.776 83.589 151.647 83.1061 151.647 82.5341C151.647 82.0417 151.742 81.6364 151.931 81.3182C152.121 81 152.376 80.7481 152.698 80.5625C153.02 80.3769 153.38 80.2367 153.778 80.142C154.175 80.0473 154.581 79.9754 154.994 79.9261C155.516 79.8655 155.941 79.8163 156.266 79.7784C156.592 79.7367 156.829 79.6705 156.977 79.5795C157.124 79.4886 157.198 79.3409 157.198 79.1364V79.0966C157.198 78.6004 157.058 78.2159 156.778 77.9432C156.501 77.6705 156.088 77.5341 155.539 77.5341C154.967 77.5341 154.516 77.661 154.187 77.9148C153.861 78.1648 153.636 78.4432 153.511 78.75L151.914 78.3864C152.103 77.8561 152.38 77.428 152.744 77.1023C153.111 76.7727 153.533 76.5341 154.011 76.3864C154.488 76.2348 154.99 76.1591 155.516 76.1591C155.865 76.1591 156.234 76.2008 156.624 76.2841C157.018 76.3636 157.386 76.5114 157.727 76.7273C158.071 76.9432 158.353 77.2519 158.573 77.6534C158.793 78.0511 158.903 78.5682 158.903 79.2045V85H157.244V83.8068H157.175C157.066 84.0265 156.901 84.2424 156.681 84.4545C156.461 84.6667 156.179 84.8428 155.835 84.983C155.49 85.1231 155.077 85.1932 154.596 85.1932ZM154.965 83.8295C155.435 83.8295 155.836 83.7367 156.17 83.5511C156.507 83.3655 156.763 83.1231 156.937 82.8239C157.115 82.5208 157.204 82.197 157.204 81.8523V80.7273C157.143 80.7879 157.026 80.8447 156.852 80.8977C156.681 80.947 156.486 80.9905 156.266 81.0284C156.047 81.0625 155.833 81.0947 155.624 81.125C155.416 81.1515 155.242 81.1742 155.102 81.1932C154.772 81.2348 154.471 81.3049 154.198 81.4034C153.929 81.5019 153.713 81.6439 153.55 81.8295C153.391 82.0114 153.312 82.2538 153.312 82.5568C153.312 82.9773 153.467 83.2955 153.778 83.5114C154.088 83.7235 154.484 83.8295 154.965 83.8295ZM165.319 76.2727V77.6364H160.387V76.2727H165.319ZM161.739 85V75.2614C161.739 74.7159 161.859 74.2633 162.097 73.9034C162.336 73.5398 162.652 73.2689 163.046 73.0909C163.44 72.9091 163.868 72.8182 164.33 72.8182C164.671 72.8182 164.963 72.8466 165.205 72.9034C165.448 72.9564 165.628 73.0057 165.745 73.0511L165.347 74.4261C165.268 74.4034 165.165 74.3769 165.04 74.3466C164.915 74.3125 164.764 74.2955 164.586 74.2955C164.173 74.2955 163.878 74.3977 163.7 74.6023C163.525 74.8068 163.438 75.1023 163.438 75.4886V85H161.739ZM171.225 76.2727V77.6364H166.293V76.2727H171.225ZM167.646 85V75.2614C167.646 74.7159 167.765 74.2633 168.004 73.9034C168.242 73.5398 168.558 73.2689 168.952 73.0909C169.346 72.9091 169.774 72.8182 170.237 72.8182C170.577 72.8182 170.869 72.8466 171.112 72.9034C171.354 72.9564 171.534 73.0057 171.651 73.0511L171.254 74.4261C171.174 74.4034 171.072 74.3769 170.947 74.3466C170.822 74.3125 170.67 74.2955 170.492 74.2955C170.079 74.2955 169.784 74.3977 169.606 74.6023C169.432 74.8068 169.344 75.1023 169.344 75.4886V85H167.646ZM176.396 85.1761C175.536 85.1761 174.795 84.9924 174.174 84.625C173.557 84.2538 173.079 83.733 172.742 83.0625C172.409 82.3883 172.242 81.5985 172.242 80.6932C172.242 79.7992 172.409 79.0114 172.742 78.3295C173.079 77.6477 173.549 77.1155 174.151 76.733C174.757 76.3504 175.466 76.1591 176.276 76.1591C176.769 76.1591 177.246 76.2405 177.708 76.4034C178.17 76.5663 178.585 76.822 178.952 77.1705C179.32 77.5189 179.61 77.9716 179.822 78.5284C180.034 79.0814 180.14 79.7538 180.14 80.5455V81.1477H173.202V79.875H178.475C178.475 79.428 178.384 79.0322 178.202 78.6875C178.021 78.339 177.765 78.0644 177.435 77.8636C177.11 77.6629 176.727 77.5625 176.288 77.5625C175.81 77.5625 175.394 77.6799 175.038 77.9148C174.685 78.1458 174.413 78.4489 174.219 78.8239C174.03 79.1951 173.935 79.5985 173.935 80.0341V81.0284C173.935 81.6117 174.038 82.108 174.242 82.517C174.451 82.9261 174.74 83.2386 175.112 83.4545C175.483 83.6667 175.916 83.7727 176.413 83.7727C176.735 83.7727 177.028 83.7273 177.293 83.6364C177.558 83.5417 177.788 83.4015 177.981 83.2159C178.174 83.0303 178.322 82.8011 178.424 82.5284L180.032 82.8182C179.903 83.2917 179.672 83.7064 179.339 84.0625C179.009 84.4148 178.594 84.6894 178.094 84.8864C177.598 85.0795 177.032 85.1761 176.396 85.1761ZM185.701 85.1761C184.856 85.1761 184.129 84.9848 183.519 84.6023C182.913 84.2159 182.447 83.6837 182.121 83.0057C181.796 82.3277 181.633 81.5511 181.633 80.6761C181.633 79.7898 181.799 79.0076 182.133 78.3295C182.466 77.6477 182.936 77.1155 183.542 76.733C184.148 76.3504 184.862 76.1591 185.684 76.1591C186.347 76.1591 186.938 76.2822 187.457 76.5284C187.976 76.7708 188.394 77.1117 188.712 77.5511C189.034 77.9905 189.226 78.5038 189.286 79.0909H187.633C187.542 78.6818 187.334 78.3295 187.008 78.0341C186.686 77.7386 186.254 77.5909 185.712 77.5909C185.239 77.5909 184.824 77.7159 184.468 77.9659C184.116 78.2121 183.841 78.5644 183.644 79.0227C183.447 79.4773 183.349 80.0152 183.349 80.6364C183.349 81.2727 183.445 81.822 183.638 82.2841C183.832 82.7462 184.104 83.1042 184.457 83.358C184.813 83.6117 185.231 83.7386 185.712 83.7386C186.034 83.7386 186.326 83.6799 186.587 83.5625C186.853 83.4413 187.074 83.2689 187.252 83.0455C187.434 82.822 187.561 82.553 187.633 82.2386H189.286C189.226 82.803 189.042 83.3068 188.735 83.75C188.428 84.1932 188.017 84.5417 187.502 84.7955C186.991 85.0492 186.39 85.1761 185.701 85.1761ZM195.177 76.2727V77.6364H190.41V76.2727H195.177ZM191.688 74.1818H193.387V82.4375C193.387 82.767 193.436 83.0152 193.535 83.1818C193.633 83.3447 193.76 83.4564 193.915 83.517C194.075 83.5739 194.247 83.6023 194.433 83.6023C194.569 83.6023 194.688 83.5928 194.79 83.5739C194.893 83.5549 194.972 83.5398 195.029 83.5284L195.336 84.9318C195.237 84.9697 195.097 85.0076 194.915 85.0455C194.734 85.0871 194.506 85.1098 194.234 85.1136C193.787 85.1212 193.37 85.0417 192.984 84.875C192.597 84.7083 192.285 84.4508 192.046 84.1023C191.808 83.7538 191.688 83.3163 191.688 82.7898V74.1818ZM203.83 85.1932C203.277 85.1932 202.777 85.0909 202.33 84.8864C201.883 84.678 201.529 84.3769 201.268 83.983C201.01 83.589 200.881 83.1061 200.881 82.5341C200.881 82.0417 200.976 81.6364 201.165 81.3182C201.355 81 201.611 80.7481 201.933 80.5625C202.254 80.3769 202.614 80.2367 203.012 80.142C203.41 80.0473 203.815 79.9754 204.228 79.9261C204.751 79.8655 205.175 79.8163 205.501 79.7784C205.826 79.7367 206.063 79.6705 206.211 79.5795C206.359 79.4886 206.433 79.3409 206.433 79.1364V79.0966C206.433 78.6004 206.292 78.2159 206.012 77.9432C205.736 77.6705 205.323 77.5341 204.773 77.5341C204.201 77.5341 203.751 77.661 203.421 77.9148C203.095 78.1648 202.87 78.4432 202.745 78.75L201.148 78.3864C201.338 77.8561 201.614 77.428 201.978 77.1023C202.345 76.7727 202.768 76.5341 203.245 76.3864C203.722 76.2348 204.224 76.1591 204.751 76.1591C205.099 76.1591 205.469 76.2008 205.859 76.2841C206.253 76.3636 206.62 76.5114 206.961 76.7273C207.306 76.9432 207.588 77.2519 207.808 77.6534C208.027 78.0511 208.137 78.5682 208.137 79.2045V85H206.478V83.8068H206.41C206.3 84.0265 206.135 84.2424 205.915 84.4545C205.696 84.6667 205.414 84.8428 205.069 84.983C204.724 85.1231 204.311 85.1932 203.83 85.1932ZM204.2 83.8295C204.669 83.8295 205.071 83.7367 205.404 83.5511C205.741 83.3655 205.997 83.1231 206.171 82.8239C206.349 82.5208 206.438 82.197 206.438 81.8523V80.7273C206.378 80.7879 206.26 80.8447 206.086 80.8977C205.915 80.947 205.72 80.9905 205.501 81.0284C205.281 81.0625 205.067 81.0947 204.859 81.125C204.65 81.1515 204.476 81.1742 204.336 81.1932C204.006 81.2348 203.705 81.3049 203.433 81.4034C203.164 81.5019 202.948 81.6439 202.785 81.8295C202.626 82.0114 202.546 82.2538 202.546 82.5568C202.546 82.9773 202.701 83.2955 203.012 83.5114C203.323 83.7235 203.719 83.8295 204.2 83.8295ZM210.4 88.2727V76.2727H212.059V77.6875H212.201C212.299 77.5057 212.442 77.2955 212.627 77.0568C212.813 76.8182 213.07 76.6098 213.4 76.4318C213.729 76.25 214.165 76.1591 214.707 76.1591C215.411 76.1591 216.04 76.3371 216.593 76.6932C217.146 77.0492 217.58 77.5625 217.894 78.233C218.212 78.9034 218.371 79.7102 218.371 80.6534C218.371 81.5966 218.214 82.4053 217.9 83.0795C217.585 83.75 217.154 84.267 216.604 84.6307C216.055 84.9905 215.428 85.1705 214.724 85.1705C214.193 85.1705 213.76 85.0814 213.423 84.9034C213.089 84.7254 212.828 84.517 212.638 84.2784C212.449 84.0398 212.303 83.8277 212.201 83.642H212.099V88.2727H210.4ZM212.065 80.6364C212.065 81.25 212.154 81.7879 212.332 82.25C212.51 82.7121 212.767 83.0739 213.104 83.3352C213.442 83.5928 213.854 83.7216 214.343 83.7216C214.851 83.7216 215.275 83.5871 215.616 83.3182C215.957 83.0455 216.214 82.6761 216.388 82.2102C216.567 81.7443 216.656 81.2197 216.656 80.6364C216.656 80.0606 216.568 79.5436 216.394 79.0852C216.224 78.6269 215.966 78.2652 215.621 78C215.281 77.7348 214.854 77.6023 214.343 77.6023C213.851 77.6023 213.434 77.7292 213.093 77.983C212.756 78.2367 212.5 78.5909 212.326 79.0455C212.152 79.5 212.065 80.0303 212.065 80.6364ZM220.275 88.2727V76.2727H221.934V77.6875H222.076C222.174 77.5057 222.317 77.2955 222.502 77.0568C222.688 76.8182 222.945 76.6098 223.275 76.4318C223.604 76.25 224.04 76.1591 224.582 76.1591C225.286 76.1591 225.915 76.3371 226.468 76.6932C227.021 77.0492 227.455 77.5625 227.769 78.233C228.087 78.9034 228.246 79.7102 228.246 80.6534C228.246 81.5966 228.089 82.4053 227.775 83.0795C227.46 83.75 227.029 84.267 226.479 84.6307C225.93 84.9905 225.303 85.1705 224.599 85.1705C224.068 85.1705 223.635 85.0814 223.298 84.9034C222.964 84.7254 222.703 84.517 222.513 84.2784C222.324 84.0398 222.178 83.8277 222.076 83.642H221.974V88.2727H220.275ZM221.94 80.6364C221.94 81.25 222.029 81.7879 222.207 82.25C222.385 82.7121 222.642 83.0739 222.979 83.3352C223.317 83.5928 223.729 83.7216 224.218 83.7216C224.726 83.7216 225.15 83.5871 225.491 83.3182C225.832 83.0455 226.089 82.6761 226.263 82.2102C226.442 81.7443 226.531 81.2197 226.531 80.6364C226.531 80.0606 226.443 79.5436 226.269 79.0852C226.099 78.6269 225.841 78.2652 225.496 78C225.156 77.7348 224.729 77.6023 224.218 77.6023C223.726 77.6023 223.309 77.7292 222.968 77.983C222.631 78.2367 222.375 78.5909 222.201 79.0455C222.027 79.5 221.94 80.0303 221.94 80.6364ZM234.542 73.3636V85H232.781V75.125H232.712L229.928 76.9432V75.2614L232.832 73.3636H234.542Z" fill="#94A3B8"/>
</svg>
