<svg width="980" height="570" viewBox="0 0 980 570" fill="none" xmlns="http://www.w3.org/2000/svg">
<path d="M403.876 25.8182V52H407.635V33.0412H407.878L415.599 51.9616H418.719L426.44 33.054H426.683V52H430.442V25.8182H425.648L417.312 46.1705H417.006L408.67 25.8182H403.876ZM444.15 52.3963C449.685 52.3963 453.303 48.3438 453.303 42.2713C453.303 36.1605 449.685 32.108 444.15 32.108C438.614 32.108 434.996 36.1605 434.996 42.2713C434.996 48.3438 438.614 52.3963 444.15 52.3963ZM444.162 49.1875C440.544 49.1875 438.857 46.0298 438.857 42.2585C438.857 38.5 440.544 35.304 444.162 35.304C447.755 35.304 449.442 38.5 449.442 42.2585C449.442 46.0298 447.755 49.1875 444.162 49.1875ZM461.392 40.3409C461.392 37.2088 463.31 35.419 465.969 35.419C468.564 35.419 470.136 37.1193 470.136 39.9702V52H473.959V39.5099C473.959 34.652 471.287 32.108 467.273 32.108C464.32 32.108 462.389 33.4759 461.482 35.5597H461.239V32.3636H457.57V52H461.392V40.3409ZM487.357 52.3963C492.892 52.3963 496.51 48.3438 496.51 42.2713C496.51 36.1605 492.892 32.108 487.357 32.108C481.821 32.108 478.203 36.1605 478.203 42.2713C478.203 48.3438 481.821 52.3963 487.357 52.3963ZM487.369 49.1875C483.751 49.1875 482.064 46.0298 482.064 42.2585C482.064 38.5 483.751 35.304 487.369 35.304C490.962 35.304 492.649 38.5 492.649 42.2585C492.649 46.0298 490.962 49.1875 487.369 49.1875ZM500.777 52H504.599V40.0085C504.599 37.4389 506.581 35.5852 509.291 35.5852C510.083 35.5852 510.978 35.7259 511.285 35.8153V32.1591C510.902 32.108 510.147 32.0696 509.662 32.0696C507.36 32.0696 505.392 33.3736 504.676 35.483H504.471V32.3636H500.777V52ZM522.353 52.3963C526.636 52.3963 529.665 50.2869 530.535 47.0909L526.917 46.4389C526.227 48.2926 524.565 49.2386 522.391 49.2386C519.119 49.2386 516.92 47.1165 516.817 43.3324H530.778V41.9773C530.778 34.8821 526.533 32.108 522.085 32.108C516.613 32.108 513.008 36.2756 513.008 42.3097C513.008 48.4077 516.562 52.3963 522.353 52.3963ZM516.83 40.4688C516.984 37.6818 519.004 35.2656 522.11 35.2656C525.076 35.2656 527.019 37.4645 527.032 40.4688H516.83ZM535.019 59.3636H538.841V48.9446H539.071C539.762 50.1974 541.168 52.3835 544.748 52.3835C549.503 52.3835 552.955 48.5739 552.955 42.2202C552.955 35.8537 549.452 32.108 544.709 32.108C541.066 32.108 539.749 34.3324 539.071 35.5469H538.752V32.3636H535.019V59.3636ZM538.765 42.1818C538.765 38.0781 540.554 35.3551 543.891 35.3551C547.355 35.3551 549.094 38.2827 549.094 42.1818C549.094 46.1193 547.304 49.1236 543.891 49.1236C540.605 49.1236 538.765 46.3111 538.765 42.1818ZM565.509 52.3963C571.044 52.3963 574.662 48.3438 574.662 42.2713C574.662 36.1605 571.044 32.108 565.509 32.108C559.973 32.108 556.355 36.1605 556.355 42.2713C556.355 48.3438 559.973 52.3963 565.509 52.3963ZM565.522 49.1875C561.904 49.1875 560.216 46.0298 560.216 42.2585C560.216 38.5 561.904 35.304 565.522 35.304C569.114 35.304 570.801 38.5 570.801 42.2585C570.801 46.0298 569.114 49.1875 565.522 49.1875Z" fill="#A8A8A8"/>
<line x1="489.596" y1="146.376" x2="145.596" y2="295.376" stroke="#9CA3AF" stroke-width="3"/>
<line x1="490.047" y1="146.075" x2="336.047" y2="296.075" stroke="#9CA3AF" stroke-width="3"/>
<line x1="490.492" y1="144.85" x2="505.492" y2="293.85" stroke="#9CA3AF" stroke-width="3"/>
<line x1="489.944" y1="143.834" x2="673.944" y2="292.834" stroke="#9CA3AF" stroke-width="3"/>
<line x1="489.583" y1="143.618" x2="842.583" y2="292.618" stroke="#9CA3AF" stroke-width="3"/>
<rect x="439" y="120" width="100" height="50" rx="5" fill="#9CA3AF"/>
<path d="M478.989 145.455C478.989 141.223 476.406 138.73 472.974 138.73C469.535 138.73 466.959 141.223 466.959 145.455C466.959 149.68 469.535 152.179 472.974 152.179C476.406 152.179 478.989 149.686 478.989 145.455ZM476.604 145.455C476.604 148.433 475.109 150.05 472.974 150.05C470.845 150.05 469.343 148.433 469.343 145.455C469.343 142.476 470.845 140.859 472.974 140.859C475.109 140.859 476.604 142.476 476.604 145.455ZM481.128 152H483.442V146.228C483.442 144.982 484.382 144.099 485.654 144.099C486.044 144.099 486.53 144.17 486.728 144.234V142.105C486.517 142.067 486.153 142.041 485.897 142.041C484.772 142.041 483.832 142.68 483.474 143.818H483.372V142.182H481.128V152ZM492.131 155.886C494.783 155.886 496.739 154.672 496.739 152.16V142.182H494.457V143.805H494.33C493.978 143.096 493.243 142.054 491.511 142.054C489.241 142.054 487.458 143.831 487.458 147.059C487.458 150.261 489.241 151.859 491.504 151.859C493.185 151.859 493.972 150.958 494.33 150.236H494.445V152.096C494.445 153.54 493.486 154.135 492.169 154.135C490.776 154.135 490.162 153.477 489.881 152.901L487.797 153.406C488.219 154.781 489.631 155.886 492.131 155.886ZM492.15 150.044C490.622 150.044 489.817 148.855 489.817 147.046C489.817 145.263 490.609 143.952 492.15 143.952C493.639 143.952 494.457 145.186 494.457 147.046C494.457 148.919 493.626 150.044 492.15 150.044ZM508.875 138.909H506.618L503.365 140.999V143.173L506.426 141.217H506.503V152H508.875V138.909Z" fill="white"/>
<line x1="148.95" y1="294.312" x2="128.95" y2="355.312" stroke="#FFC562" stroke-width="2"/>
<line x1="148.817" y1="293.424" x2="191.817" y2="354.424" stroke="#FFC562" stroke-width="2"/>
<rect x="97" y="269" width="100" height="50" rx="5" fill="#FFC562"/>
<rect x="103" y="343" width="50" height="25" rx="5" fill="#70AF40"/>
<rect x="166" y="343" width="50" height="25" rx="5" fill="#61A8E8"/>
<path d="M125.972 301L127.053 297.772H131.974L133.061 301H135.592L130.977 287.909H128.05L123.441 301H125.972ZM127.692 295.867L129.462 290.594H129.565L131.335 295.867H127.692ZM137.214 304.682H139.528V299.453H139.624C139.988 300.169 140.749 301.173 142.437 301.173C144.751 301.173 146.483 299.338 146.483 296.104C146.483 292.831 144.699 291.054 142.43 291.054C140.698 291.054 139.976 292.096 139.624 292.805H139.49V291.182H137.214V304.682ZM139.483 296.091C139.483 294.186 140.302 292.952 141.791 292.952C143.331 292.952 144.124 294.263 144.124 296.091C144.124 297.932 143.319 299.274 141.791 299.274C140.314 299.274 139.483 297.996 139.483 296.091ZM148.464 304.682H150.778V299.453H150.874C151.238 300.169 151.999 301.173 153.687 301.173C156.001 301.173 157.733 299.338 157.733 296.104C157.733 292.831 155.949 291.054 153.68 291.054C151.948 291.054 151.226 292.096 150.874 292.805H150.74V291.182H148.464V304.682ZM150.733 296.091C150.733 294.186 151.552 292.952 153.041 292.952C154.581 292.952 155.374 294.263 155.374 296.091C155.374 297.932 154.569 299.274 153.041 299.274C151.564 299.274 150.733 297.996 150.733 296.091ZM169.478 287.909H167.222L163.968 289.999V292.173L167.03 290.217H167.107V301H169.478V287.909Z" fill="white"/>
<rect x="285" y="270" width="100" height="50" rx="5" fill="#70AF40"/>
<path d="M316.291 302H324.428V300.012H318.663V288.909H316.291V302ZM326.384 302H328.698V292.182H326.384V302ZM327.548 290.788C328.283 290.788 328.884 290.226 328.884 289.536C328.884 288.839 328.283 288.276 327.548 288.276C326.806 288.276 326.205 288.839 326.205 289.536C326.205 290.226 326.806 290.788 327.548 290.788ZM331.18 302H333.455V300.453H333.59C333.954 301.169 334.715 302.173 336.402 302.173C338.716 302.173 340.448 300.338 340.448 297.104C340.448 293.831 338.665 292.054 336.396 292.054C334.664 292.054 333.941 293.096 333.59 293.805H333.494V288.909H331.18V302ZM333.449 297.091C333.449 295.186 334.267 293.952 335.757 293.952C337.297 293.952 338.09 295.263 338.09 297.091C338.09 298.932 337.284 300.274 335.757 300.274C334.28 300.274 333.449 298.996 333.449 297.091ZM352.179 288.909H349.923L346.669 290.999V293.173L349.731 291.217H349.808V302H352.179V288.909Z" fill="white"/>
<rect x="623" y="269" width="100" height="50" rx="5" fill="#EB77A6"/>
<path d="M654.291 301H662.428V299.012H656.663V287.909H654.291V301ZM664.384 301H666.698V291.182H664.384V301ZM665.548 289.788C666.283 289.788 666.884 289.226 666.884 288.536C666.884 287.839 666.283 287.276 665.548 287.276C664.806 287.276 664.205 287.839 664.205 288.536C664.205 289.226 664.806 289.788 665.548 289.788ZM669.18 301H671.455V299.453H671.59C671.954 300.169 672.715 301.173 674.402 301.173C676.716 301.173 678.448 299.338 678.448 296.104C678.448 292.831 676.665 291.054 674.396 291.054C672.664 291.054 671.941 292.096 671.59 292.805H671.494V287.909H669.18V301ZM671.449 296.091C671.449 294.186 672.267 292.952 673.757 292.952C675.297 292.952 676.09 294.263 676.09 296.091C676.09 297.932 675.284 299.274 673.757 299.274C672.28 299.274 671.449 297.996 671.449 296.091ZM689.553 301.179C692.353 301.179 694.392 299.575 694.385 297.363C694.392 295.727 693.369 294.55 691.534 294.288V294.186C692.953 293.879 693.906 292.825 693.9 291.354C693.906 289.36 692.206 287.73 689.591 287.73C687.047 287.73 685.078 289.245 685.027 291.438H687.309C687.348 290.338 688.37 289.654 689.578 289.654C690.799 289.654 691.611 290.396 691.605 291.495C691.611 292.639 690.665 293.4 689.31 293.4H688.153V295.228H689.31C690.966 295.228 691.95 296.059 691.944 297.241C691.95 298.398 690.946 299.191 689.547 299.191C688.23 299.191 687.213 298.507 687.156 297.44H684.752C684.816 299.651 686.792 301.179 689.553 301.179Z" fill="white"/>
<line x1="505" y1="295" x2="505" y2="355" stroke="#FFC562" stroke-width="2"/>
<rect x="454" y="269" width="100" height="50" rx="5" fill="#FFC562"/>
<rect x="479" y="343" width="50" height="25" rx="5" fill="#EB77A6"/>
<path d="M482.972 301L484.053 297.772H488.974L490.061 301H492.592L487.977 287.909H485.05L480.441 301H482.972ZM484.692 295.867L486.462 290.594H486.565L488.335 295.867H484.692ZM494.214 304.682H496.528V299.453H496.624C496.988 300.169 497.749 301.173 499.437 301.173C501.751 301.173 503.483 299.338 503.483 296.104C503.483 292.831 501.699 291.054 499.43 291.054C497.698 291.054 496.976 292.096 496.624 292.805H496.49V291.182H494.214V304.682ZM496.483 296.091C496.483 294.186 497.302 292.952 498.791 292.952C500.331 292.952 501.124 294.263 501.124 296.091C501.124 297.932 500.319 299.274 498.791 299.274C497.314 299.274 496.483 297.996 496.483 296.091ZM505.464 304.682H507.778V299.453H507.874C508.238 300.169 508.999 301.173 510.687 301.173C513.001 301.173 514.733 299.338 514.733 296.104C514.733 292.831 512.949 291.054 510.68 291.054C508.948 291.054 508.226 292.096 507.874 292.805H507.74V291.182H505.464V304.682ZM507.733 296.091C507.733 294.186 508.552 292.952 510.041 292.952C511.581 292.952 512.374 294.263 512.374 296.091C512.374 297.932 511.569 299.274 510.041 299.274C508.564 299.274 507.733 297.996 507.733 296.091ZM521.154 301H530.128V299.018H524.426V298.929L526.683 296.634C529.227 294.192 529.93 293.004 529.93 291.527C529.93 289.335 528.146 287.73 525.513 287.73C522.918 287.73 521.077 289.341 521.077 291.827H523.333C523.333 290.491 524.177 289.654 525.481 289.654C526.727 289.654 527.654 290.415 527.654 291.648C527.654 292.741 526.99 293.521 525.698 294.832L521.154 299.287V301Z" fill="white"/>
<line x1="840.5" y1="355" x2="840.5" y2="294" stroke="#61A8E8" stroke-width="3"/>
<rect x="792" y="269" width="100" height="50" rx="5" fill="#61A8E8"/>
<rect x="817" y="343" width="50" height="25" rx="5" fill="#EB77A6"/>
<path d="M822.291 301H830.428V299.012H824.663V287.909H822.291V301ZM832.384 301H834.698V291.182H832.384V301ZM833.548 289.788C834.283 289.788 834.884 289.226 834.884 288.536C834.884 287.839 834.283 287.276 833.548 287.276C832.806 287.276 832.205 287.839 832.205 288.536C832.205 289.226 832.806 289.788 833.548 289.788ZM837.18 301H839.455V299.453H839.59C839.954 300.169 840.715 301.173 842.402 301.173C844.716 301.173 846.448 299.338 846.448 296.104C846.448 292.831 844.665 291.054 842.396 291.054C840.664 291.054 839.941 292.096 839.59 292.805H839.494V287.909H837.18V301ZM839.449 296.091C839.449 294.186 840.267 292.952 841.757 292.952C843.297 292.952 844.09 294.263 844.09 296.091C844.09 297.932 843.284 299.274 841.757 299.274C840.28 299.274 839.449 297.996 839.449 296.091ZM852.855 301H861.829V299.018H856.127V298.929L858.384 296.634C860.928 294.192 861.631 293.004 861.631 291.527C861.631 289.335 859.848 287.73 857.214 287.73C854.619 287.73 852.778 289.341 852.778 291.827H855.034C855.034 290.491 855.878 289.654 857.182 289.654C858.429 289.654 859.355 290.415 859.355 291.648C859.355 292.741 858.691 293.521 857.4 294.832L852.855 299.287V301Z" fill="white"/>
<rect x="17" y="87" width="945" height="427" rx="15" stroke="#9CA3AF" stroke-width="3" stroke-dasharray="6 6"/>
</svg>
